<svg width="256" height="229" viewBox="0 0 256 229" fill="none" xmlns="http://www.w3.org/2000/svg">
<g clip-path="url(#clip0_1_2)">
<path d="M228.188 -0.499987C228.994 -0.530441 229.8 -0.560895 230.631 -0.592272C234.695 -0.594875 237.249 -0.215864 240.488 2.34376C244.057 6.11767 244.13 8.78152 244.177 13.7849C244.196 15.5671 244.196 15.5671 244.216 17.3853C244.223 18.6696 244.231 19.954 244.238 21.2774C244.246 22.5954 244.254 23.9134 244.263 25.2714C244.278 28.0614 244.288 30.8513 244.295 33.6414C244.306 37.2138 244.341 40.7856 244.38 44.3578C244.413 47.7685 244.417 51.1791 244.426 54.5899C244.443 55.8722 244.461 57.1546 244.479 58.4758C244.474 60.2627 244.474 60.2627 244.47 62.0857C244.476 63.1337 244.482 64.1816 244.488 65.2614C243.87 68.7278 242.775 69.8902 240 72C235.541 72.8313 233.409 72.9535 229.621 70.3906C228.071 69.1138 226.554 67.7954 225.078 66.4336C223.126 64.778 223.126 64.778 220.859 65.0977C218.65 65.9758 218.65 65.9758 217 69C217.58 69.2565 218.16 69.5131 218.758 69.7774C225.968 73.3111 229.456 77.9117 233 85C233.285 90.3679 233.314 95.7369 233.35 101.112C233.367 102.907 233.394 104.702 233.432 106.497C233.487 109.088 233.509 111.678 233.523 114.27C233.546 115.069 233.569 115.868 233.592 116.691C233.576 120.981 233.388 122.519 230.592 125.983C228 128 228 128 226 129C226.969 129.763 227.939 130.526 228.938 131.313C231.421 133.268 231.952 133.857 233 137C233.291 141.495 233.278 145.997 233.312 150.5C233.342 151.73 233.371 152.96 233.4 154.227C233.473 164.732 231.787 174.285 224.285 182.105C219.349 186.198 213.673 189.078 208 192C207.316 192.357 206.631 192.713 205.926 193.081C203.831 194.168 201.73 195.244 199.625 196.313C198.984 196.638 198.343 196.963 197.682 197.299C184.57 203.807 184.57 203.807 178 202C177.818 202.91 177.636 203.82 177.449 204.758C175.541 209.026 172.894 210.094 168.812 211.875C167.362 212.551 165.913 213.23 164.465 213.91C163.355 214.423 163.355 214.423 162.222 214.946C158.707 216.613 155.294 218.458 151.875 220.313C149.587 221.549 147.295 222.777 145 224C144.018 224.557 143.035 225.114 142.023 225.688C134.672 228.879 125.896 228.248 118.48 225.488C113.869 223.557 109.423 221.326 105 219C104.293 218.632 103.587 218.264 102.858 217.884C99.6621 216.211 96.489 214.508 93.332 212.762C90.9247 211.489 88.6625 210.433 86.1524 209.43C83 208 83 208 81.75 205.438C80.2754 202.815 80.2754 202.815 77.8711 202.516C76.9855 202.407 76.0999 202.299 75.1875 202.188C69.5009 201.389 65.4423 199.279 60.5654 196.312C55.3436 193.138 49.963 190.443 44.4172 187.878C40.1501 185.832 37.226 183.553 34 180C33.1338 179.154 32.2675 178.309 31.375 177.438C24.2657 168.503 25.5635 154.989 25.6638 144.225C25.6877 141.478 25.6843 138.732 25.6777 135.984C25.6833 134.229 25.6904 132.474 25.6992 130.719C25.6983 129.902 25.6974 129.085 25.6965 128.244C25.7449 124.374 25.7912 121.276 28 118C28.66 118 29.32 118 30 118C30 117.34 30 116.68 30 116C29.34 116 28.68 116 28 116C25.6778 108.877 25.6948 101.863 25.7393 94.4387C25.7499 92.3345 25.7394 90.2312 25.7266 88.127C25.6983 61.7243 25.6983 61.7243 33.5403 53.3565C39.3068 48.1266 45.6517 44.6436 52.5625 41.125C53.6601 40.5449 54.7578 39.9649 55.8887 39.3672C68.4726 32.8742 68.4726 32.8742 74.9375 34.9375C75.9584 35.4634 75.9584 35.4634 77 36C77.0413 35.1131 77.0825 34.2263 77.125 33.3125C78.4986 28.1125 81.8949 26.258 86.2813 23.6367C93.7182 19.4815 101.393 15.7461 109.033 11.9795C110.403 11.2974 111.767 10.6045 113.127 9.90333C114.172 9.36724 114.172 9.36724 115.238 8.82033C116.177 8.3333 116.177 8.3333 117.134 7.83644C124.06 4.73191 133.269 4.86605 140.438 7.06251C150.898 11.1434 165.029 17.0288 173 25C173.379 27.3125 173.379 27.3125 173.562 30C173.772 33.6372 173.772 33.6372 175 37C178.161 35.6302 178.993 35.0109 181 32C180.185 31.1995 179.371 30.399 178.531 29.5742C175.185 25.5505 175.32 21.8657 175.5 16.8125C175.497 16.0062 175.495 15.1999 175.492 14.3692C175.59 8.50612 175.59 8.50612 177.388 6.28786C179.602 4.51917 181.316 4.36742 184.125 4.00001C185.281 3.8479 186.438 3.69579 187.629 3.53908C188.305 3.4569 188.98 3.37472 189.676 3.29005C192.359 2.95515 195.036 2.58211 197.715 2.21095C207.847 0.84873 217.959 -0.305809 228.188 -0.499987Z" fill="#3A3471"/>
<path d="M168.672 21.3242C171.148 23.1064 171.777 24.287 173 27C169.253 28.8186 165.502 30.6288 161.75 32.4375C160.155 33.2119 160.155 33.2119 158.527 34.0019C157.503 34.495 156.478 34.9881 155.422 35.4961C154.479 35.9517 153.537 36.4073 152.565 36.8767C150.323 37.8586 148.422 38.6722 146 39C143.04 37.6295 140.283 36.1146 137.484 34.4492C133.581 32.3006 130.549 31.5214 126.125 32.3374C121.044 33.9218 116.552 36.8314 111.979 39.4941C107.136 42.2027 103.691 43.9226 98 43C95.1389 41.9096 92.4936 40.5352 89.8125 39.0625C88.425 38.3207 87.0358 37.5823 85.6445 36.8477C85.0397 36.5177 84.4349 36.1878 83.8118 35.8479C81.8975 34.952 80.0614 34.4472 78 34C78 35.65 78 37.3 78 39C78.66 39.2269 79.32 39.4537 80 39.6875C84.1231 41.4913 88.7813 43.7813 92 47C92.0529 48.9164 92.0923 50.8332 92.125 52.75C92.2927 57.1582 92.2927 57.1582 94.6211 60.6601C96.5194 61.844 96.5194 61.844 98.5039 62.6445C100 64 100 64 100.215 67.6367C100.144 68.7466 100.073 69.8565 100 71C98.8566 71.6381 97.7132 72.2762 96.5352 72.9336C95.0442 73.7681 93.5533 74.6028 92.0625 75.4375C91.3078 75.8584 90.553 76.2793 89.7754 76.7129C88.6974 77.3171 88.6974 77.3171 87.5977 77.9336C86.9326 78.3054 86.2675 78.6772 85.5823 79.0603C84.0142 79.9035 84.0142 79.9035 83 81C82.7681 82.5147 82.5879 84.0375 82.4375 85.5625C82.3537 86.3888 82.2699 87.2151 82.1836 88.0664C82.123 88.7045 82.0624 89.3426 82 90C77.8156 92.0288 74.6302 92.3831 70 92C67.1491 90.8944 64.5329 89.4423 61.875 87.9375C56.814 84.9049 56.814 84.9049 51.1328 84.1289C48.8351 84.9067 48.8351 84.9067 47 87C46.6638 90.1341 46.6638 90.1341 46.6777 93.8772C46.6678 94.5848 46.6579 95.2924 46.6477 96.0214C46.6184 98.3698 46.6048 100.718 46.5938 103.066C46.5823 104.701 46.5707 106.336 46.5592 107.97C46.5382 111.405 46.5265 114.839 46.5195 118.273C46.5086 122.655 46.4607 127.037 46.4036 131.419C46.3662 134.8 46.3559 138.181 46.3529 141.563C46.3468 143.177 46.3309 144.791 46.3045 146.405C46.0693 158.152 46.0693 158.152 51.3878 168.395C53.4008 170.399 55.2713 171.877 57.8203 173.145C58.6853 173.594 59.5502 174.043 60.4414 174.506C61.327 174.937 62.2126 175.368 63.125 175.812C74.5259 181.562 74.5259 181.562 77 185C77.9766 187.98 77.9766 187.98 78.625 191.188C79.0259 193.138 79.4715 195.08 80 197C80.66 197.33 81.32 197.66 82 198C81.9588 197.051 81.9175 196.103 81.875 195.125C82 192 82 192 84 190C91.257 189.038 95.7421 192.28 101.684 195.889C105.473 198.064 107.423 199.014 111.906 198.902C115.073 198.248 115.073 198.248 117 196C117.255 193.146 117.42 190.359 117.5 187.5C117.73 179.27 117.73 179.27 120 177C126.087 177.543 126.087 177.543 129 179C136.512 179.844 141.392 177.303 147.938 173.812C149.344 173.088 149.344 173.088 150.779 172.35C154.402 170.474 158.002 168.586 161.52 166.521C162.298 166.064 163.077 165.607 163.879 165.137C164.895 164.519 164.895 164.519 165.932 163.889C168.411 162.823 170.329 162.841 173 163C173.33 163.99 173.66 164.98 174 166C171.03 166.99 171.03 166.99 168 168C168 168.66 168 169.32 168 170C164.36 171.949 160.712 173.882 157.062 175.812C155.53 176.633 155.53 176.633 153.967 177.471C148.071 180.579 142.391 183.101 136 185C135.985 185.781 135.971 186.563 135.956 187.367C135.881 190.933 135.784 194.498 135.688 198.062C135.665 199.292 135.642 200.521 135.619 201.787C135.201 215.883 135.201 215.883 129.625 221.312C126.073 223.596 123.635 225.144 119.332 224.766C115.272 223.833 111.851 222.264 108.125 220.438C107.026 219.906 107.026 219.906 105.906 219.364C104.374 218.621 102.845 217.875 101.316 217.126C99.0337 216.016 96.7381 214.939 94.4375 213.867C92.9996 213.183 91.5621 212.498 90.125 211.812C89.4536 211.504 88.7821 211.196 88.0903 210.879C83.8831 208.833 82.3153 206.95 80 203C77.7577 202.258 77.7577 202.258 75.1875 202.188C69.5009 201.389 65.4423 199.279 60.5654 196.312C55.3436 193.138 49.963 190.443 44.4172 187.878C40.1501 185.832 37.226 183.553 34 180C33.1338 179.154 32.2675 178.309 31.375 177.438C24.2657 168.503 25.5635 154.989 25.6638 144.225C25.6877 141.478 25.6843 138.731 25.6777 135.984C25.6833 134.229 25.6904 132.474 25.6992 130.719C25.6983 129.902 25.6974 129.085 25.6965 128.244C25.7449 124.374 25.7912 121.276 28 118C28.66 118 29.32 118 30 118C30 117.34 30 116.68 30 116C29.34 116 28.68 116 28 116C25.6778 108.877 25.6948 101.863 25.7393 94.4387C25.7499 92.3345 25.7394 90.2311 25.7266 88.1269C25.6983 61.7243 25.6983 61.7243 33.5403 53.3564C39.3068 48.1266 45.6517 44.6435 52.5625 41.125C53.6601 40.5449 54.7578 39.9648 55.8887 39.3672C68.4726 32.8742 68.4726 32.8742 74.9375 34.9375C75.9584 35.4634 75.9584 35.4634 77 36C77.0413 35.1131 77.0825 34.2262 77.125 33.3125C78.4986 28.1125 81.8949 26.258 86.2813 23.6367C93.7182 19.4815 101.393 15.746 109.033 11.9795C110.403 11.2974 111.767 10.6045 113.127 9.90331C113.824 9.54592 114.521 9.18853 115.238 8.82031C116.177 8.33328 116.177 8.33328 117.134 7.83642C134.918 -0.135136 153.684 12.9287 168.672 21.3242Z" fill="#F96B53"/>
<path d="M114.332 70.6289C115.481 71.267 116.629 71.9051 117.812 72.5625C125.564 76.6093 125.564 76.6093 134 76C137.084 74.565 140.096 73.1037 143.041 71.4038C147.43 68.9349 147.43 68.9349 150.421 69.2764C154.778 70.4989 158.583 72.6937 162.562 74.8125C163.413 75.2514 164.263 75.6903 165.139 76.1426C173.919 80.7772 173.919 80.7772 176 84C176.584 87.0175 176.604 89.9343 176.562 93C176.598 94.2104 176.598 94.2104 176.635 95.4453C176.625 99.48 176.61 101.334 173.812 104.387C170.155 106.485 166.431 108.342 162.621 110.145C159.255 112.527 157.498 115.222 156 119C155.475 122.243 155.488 125.416 155.531 128.695C155.524 129.606 155.517 130.516 155.51 131.454C155.488 134.345 155.491 137.234 155.5 140.125C155.512 143.941 155.498 147.755 155.469 151.57C155.486 152.877 155.486 152.877 155.503 154.209C155.469 158.251 155.346 160.439 153.185 163.947C150.235 166.718 147.245 168.492 143.688 170.375C142.729 170.926 142.729 170.926 141.752 171.488C137.156 173.956 134.208 174.392 129 173C126.637 171.879 126.637 171.879 124.688 170.562C123.703 169.915 123.703 169.915 122.699 169.254C121 168 121 168 119 166C118.803 163.179 118.723 160.447 118.727 157.625C118.706 155.9 118.685 154.174 118.664 152.449C118.642 149.735 118.625 147.021 118.619 144.307C118.705 128.37 118.705 128.37 111.973 114.25C106.556 110.15 100.369 107.43 94.2832 104.461C93.281 103.958 92.2787 103.455 91.2461 102.937C89.8799 102.27 89.8799 102.27 88.4861 101.59C85.588 99.7365 83.9196 97.8437 82 95C81.4336 91.5898 81.4336 91.5898 81.4375 87.9375C81.4156 86.7296 81.3937 85.5218 81.3711 84.2773C82 81 82 81 83.9766 78.8672C87.8826 76.4549 91.8434 74.2629 95.9375 72.1875C96.7232 71.7679 97.5089 71.3483 98.3184 70.916C104.574 67.7383 107.867 67.4684 114.332 70.6289Z" fill="#619FE8"/>
<path d="M54 90C57.5656 90.5913 60.4621 91.5401 63.6951 93.1455C64.5963 93.5898 65.4975 94.034 66.426 94.4918C67.3876 94.974 68.3491 95.4563 69.3398 95.9531C70.3396 96.4504 71.3393 96.9476 72.3693 97.4599C74.4813 98.5127 76.5919 99.5686 78.7009 100.627C81.9173 102.24 85.1408 103.837 88.3652 105.434C90.4197 106.46 92.4738 107.487 94.5273 108.516C95.9667 109.227 95.9667 109.227 97.435 109.952C104.963 113.756 110.596 116.912 114 125C114.388 128.124 114.388 128.124 114.404 131.493C114.417 132.761 114.429 134.029 114.442 135.335C114.44 136.705 114.437 138.075 114.434 139.445C114.438 140.862 114.443 142.279 114.449 143.696C114.458 146.656 114.456 149.616 114.446 152.577C114.435 156.368 114.455 160.158 114.484 163.949C114.502 166.871 114.502 169.792 114.496 172.714C114.496 174.112 114.502 175.51 114.515 176.908C114.53 178.861 114.516 180.813 114.502 182.766C114.502 183.876 114.501 184.986 114.501 186.13C113.887 189.65 112.811 190.858 110 193C105.437 192.969 101.53 190.375 97.6016 188.246C96.8895 187.867 96.1775 187.488 95.4439 187.097C93.1677 185.883 90.8963 184.661 88.625 183.438C87.137 182.642 85.6488 181.847 84.1602 181.053C81.9446 179.871 79.7306 178.686 77.5213 177.492C73.9359 175.556 70.3404 173.656 66.6943 171.836C66.0121 171.49 65.3299 171.144 64.627 170.787C63.3539 170.142 62.0746 169.51 60.7882 168.892C55.4843 166.18 52.8644 162.593 51 157C50.896 154.982 50.8514 152.96 50.8389 150.94C50.8293 149.692 50.8197 148.443 50.8098 147.157C50.8049 145.794 50.8006 144.43 50.7969 143.066C50.7911 141.668 50.7854 140.269 50.7796 138.871C50.7691 135.939 50.7633 133.008 50.7598 130.077C50.7543 126.323 50.7302 122.569 50.7018 118.816C50.6832 115.927 50.678 113.039 50.6764 110.15C50.6734 108.766 50.6654 107.382 50.6522 105.999C50.6352 104.062 50.6389 102.126 50.6436 100.19C50.6399 99.0884 50.6363 97.9872 50.6325 96.8526C51.0401 93.6886 51.8711 92.324 54 90Z" fill="#195767"/>
<path d="M219 71C224.543 72.0558 226.599 74.5406 229.703 78.9297C230.131 79.6129 230.559 80.2961 231 81C231.349 81.5268 231.698 82.0536 232.058 82.5964C233.459 86.1712 233.346 89.7396 233.371 93.5273C233.385 94.7662 233.385 94.7662 233.398 96.0302C233.413 97.7742 233.422 99.5183 233.426 101.262C233.437 103.925 233.487 106.586 233.537 109.248C233.547 110.945 233.554 112.643 233.559 114.34C233.578 115.133 233.598 115.926 233.618 116.742C233.583 121.011 233.377 122.534 230.59 125.979C228 128 228 128 226 129C226.969 129.763 227.939 130.526 228.938 131.312C231.421 133.267 231.952 133.857 233 137C233.291 141.495 233.278 145.997 233.312 150.5C233.342 151.73 233.371 152.96 233.4 154.227C233.473 164.732 231.787 174.285 224.285 182.105C219.349 186.198 213.673 189.078 208 192C207.316 192.357 206.631 192.713 205.926 193.081C203.831 194.168 201.73 195.244 199.625 196.312C198.984 196.638 198.343 196.963 197.682 197.299C185.131 203.528 185.131 203.528 178 202C177.01 202.99 177.01 202.99 176 204C175.688 201.688 175.688 201.688 176 199C178.438 197.375 178.438 197.375 181 196C182.19 192.429 182.154 189.162 182.176 185.445C182.199 183.928 182.223 182.411 182.248 180.895C182.283 178.509 182.313 176.124 182.326 173.739C182.341 171.432 182.382 169.127 182.426 166.82C182.424 166.112 182.422 165.403 182.42 164.673C182.539 159.832 183.516 157.355 187 154C189.359 152.442 189.359 152.442 191.965 151.133C193.404 150.398 193.404 150.398 194.873 149.649C195.884 149.146 196.895 148.643 197.938 148.125C198.967 147.598 199.996 147.07 201.057 146.527C205.474 144.265 209.905 142.039 214.371 139.875C215.527 139.298 216.684 138.72 217.875 138.125C218.862 137.653 219.85 137.181 220.867 136.695C223.318 135.098 223.318 135.098 223.82 131.805C223.909 130.416 223.909 130.416 224 129C223.336 129.361 222.672 129.722 221.988 130.094C221.105 130.558 220.222 131.022 219.312 131.5C218.442 131.964 217.572 132.428 216.676 132.906C213.84 134.065 212.029 134.371 209 134C206.088 131.088 206.676 128.044 206.664 124.141C206.657 123.359 206.651 122.577 206.644 121.771C206.634 120.113 206.629 118.456 206.629 116.798C206.625 114.273 206.589 111.751 206.551 109.227C206.545 107.615 206.541 106.003 206.539 104.391C206.525 103.64 206.51 102.89 206.496 102.117C206.55 95.8525 208.747 92.444 212.887 87.9531C213.481 87.3911 214.075 86.8291 214.688 86.25C218.134 83.0704 218.134 83.0704 219.098 78.6172C219.086 77.7123 219.074 76.8073 219.062 75.875C219.053 74.9649 219.044 74.0548 219.035 73.1172C219.024 72.4185 219.012 71.7198 219 71Z" fill="#8F82EF"/>
<path d="M238 4C239.32 4.66 240.64 5.32 242 6C242 6.66 242 7.32 242 8C242.66 8 243.32 8 244 8C244.093 15.7539 244.164 23.5076 244.207 31.2618C244.228 34.8626 244.256 38.4629 244.302 42.0635C244.345 45.5389 244.369 49.0139 244.38 52.4896C244.39 54.4595 244.422 56.4292 244.453 58.3989C244.454 60.2003 244.454 60.2003 244.454 62.0381C244.463 63.0951 244.472 64.1521 244.481 65.2411C243.873 68.7257 242.79 69.8837 240 72C235.541 72.8313 233.409 72.9535 229.621 70.3906C228.071 69.1138 226.554 67.7954 225.078 66.4336C223.117 64.7604 223.117 64.7604 220.797 65.1602C218.81 65.8621 218.81 65.8621 218 68C217.67 68.66 217.34 69.32 217 70C216.075 70.2157 216.075 70.2157 215.131 70.4358C212.542 71.1213 211.673 72.049 209.898 74.0273C209.331 74.6504 208.763 75.2734 208.178 75.9153C207.583 76.5826 206.988 77.2499 206.375 77.9375C205.123 79.3057 203.871 80.6729 202.617 82.0391C202.003 82.7123 201.389 83.3855 200.757 84.0791C198.369 86.6898 195.957 89.2663 193.5 91.8125C192.768 92.5821 192.036 93.3516 191.281 94.1445C188.644 96.2898 186.26 97.1148 183 98C182.974 96.903 182.948 95.806 182.922 94.6758C182.866 93.2213 182.808 91.7669 182.75 90.3125C182.736 89.5913 182.722 88.87 182.707 88.127C182.675 87.4212 182.643 86.7154 182.609 85.9883C182.588 85.3442 182.567 84.7 182.546 84.0364C181.463 79.9984 178.86 77.5599 175.435 75.3308C174.021 74.616 174.021 74.616 172.578 73.8867C171.553 73.3614 170.529 72.8361 169.473 72.2949C168.409 71.7645 167.346 71.234 166.25 70.6875C165.171 70.1377 164.092 69.5879 162.98 69.0215C160.325 67.6705 157.665 66.3305 155 65C155 64.34 155 63.68 155 63C160.4 62.676 163.24 63.6202 168 66C171.5 66.8333 171.5 66.8333 175 66C176.705 64.4908 177.981 62.8789 179.339 61.0525C180.946 59.0673 182.561 57.5512 184.52 55.9211C189.34 51.7784 193.801 47.3136 198.273 42.802C199.772 41.2904 201.274 39.7821 202.776 38.2746C205.958 35.0817 209.136 31.8849 212.312 28.6875C216.015 24.9617 219.718 21.2375 223.427 17.5176C224.904 16.0339 226.378 14.5473 227.852 13.0605C229.194 11.7132 229.194 11.7132 230.564 10.3386C231.743 9.15118 231.743 9.15118 232.947 7.93974C235 6 235 6 238 4Z" fill="#29D3F3"/>
<path d="M168.672 21.3242C171.148 23.1064 171.777 24.287 173 27C169.253 28.8186 165.502 30.6288 161.75 32.4375C160.155 33.2119 160.155 33.2119 158.527 34.0019C157.503 34.495 156.478 34.9881 155.422 35.4961C154.479 35.9517 153.537 36.4073 152.565 36.8767C150.323 37.8586 148.422 38.6722 146 39C143.04 37.6295 140.283 36.1146 137.484 34.4492C133.581 32.3006 130.549 31.5214 126.125 32.3374C121.044 33.9218 116.552 36.8314 111.979 39.4941C107.136 42.2027 103.691 43.9226 98 43C95.1389 41.9096 92.4936 40.5352 89.8125 39.0625C88.425 38.3207 87.0358 37.5823 85.6445 36.8477C85.0397 36.5177 84.4349 36.1878 83.8118 35.8479C81.8975 34.952 80.0614 34.4472 78 34C78 35.65 78 37.3 78 39C77.3194 38.67 76.6388 38.34 75.9375 38C71.3863 36.4506 67.5281 36.4315 63.0056 38.114C62.0331 38.6268 61.0606 39.1396 60.0586 39.668C58.4412 40.5139 58.4412 40.5139 56.791 41.3769C55.6844 41.9744 54.5777 42.5719 53.4375 43.1875C52.327 43.7656 51.2165 44.3438 50.0723 44.9394C39.482 50.4199 39.482 50.4199 32.1875 59.5625C31.59 60.6782 31.59 60.6782 30.9805 61.8164C29.3917 65.3548 28.8734 68.5336 28.823 72.3979C28.8102 73.2592 28.7973 74.1204 28.7841 75.0078C28.7767 75.9308 28.7693 76.8537 28.7617 77.8047C28.7537 78.7614 28.7456 79.7182 28.7373 80.7039C28.7235 82.7262 28.7127 84.7486 28.7048 86.771C28.6876 89.8569 28.6437 92.9417 28.5996 96.0273C28.5895 97.9948 28.581 99.9622 28.5742 101.93C28.548 103.308 28.548 103.308 28.5212 104.714C28.5405 110.458 29.2997 113.555 33 118C31.02 118.99 31.02 118.99 29 120C28.8468 126.492 28.7423 132.983 28.6704 139.476C28.6404 141.681 28.5996 143.885 28.5474 146.09C27.6338 163.184 27.6338 163.184 35 178C39.4798 182.674 44.2725 186.017 50 189C49.34 189.33 48.68 189.66 48 190C42.4775 187.722 37.9371 184.484 34 180C33.1338 179.154 32.2675 178.309 31.375 177.438C24.2657 168.503 25.5635 154.989 25.6638 144.225C25.6877 141.478 25.6843 138.731 25.6777 135.984C25.6833 134.229 25.6904 132.474 25.6992 130.719C25.6983 129.902 25.6974 129.085 25.6965 128.244C25.7449 124.374 25.7912 121.276 28 118C28.66 118 29.32 118 30 118C30 117.34 30 116.68 30 116C29.34 116 28.68 116 28 116C25.6778 108.877 25.6948 101.863 25.7393 94.4387C25.7499 92.3345 25.7394 90.2311 25.7266 88.1269C25.6983 61.7243 25.6983 61.7243 33.5403 53.3564C39.3068 48.1266 45.6517 44.6435 52.5625 41.125C53.6601 40.5449 54.7578 39.9648 55.8887 39.3672C68.4726 32.8742 68.4726 32.8742 74.9375 34.9375C75.9584 35.4634 75.9584 35.4634 77 36C77.0413 35.1131 77.0825 34.2262 77.125 33.3125C78.4986 28.1125 81.8949 26.258 86.2813 23.6367C93.7182 19.4815 101.393 15.746 109.033 11.9795C110.403 11.2974 111.767 10.6045 113.127 9.90331C113.824 9.54592 114.521 9.18853 115.238 8.82031C116.177 8.33328 116.177 8.33328 117.134 7.83642C134.918 -0.135136 153.684 12.9287 168.672 21.3242Z" fill="#F93CD6"/>
<path d="M111 69C113.302 70.1255 115.572 71.318 117.812 72.5625C125.564 76.6094 125.564 76.6094 134 76C137.084 74.565 140.096 73.1037 143.041 71.4038C147.43 68.9349 147.43 68.9349 150.421 69.2764C154.778 70.4989 158.583 72.6937 162.562 74.8125C163.413 75.2514 164.263 75.6904 165.139 76.1426C173.983 80.8108 173.983 80.8108 176 84C176.456 87.1042 176.377 90.1216 176.25 93.25C176.232 94.0905 176.214 94.9309 176.195 95.7969C176.148 97.8651 176.077 99.9327 176 102C175.01 102 174.02 102 173 102C173.33 101.67 173.66 101.34 174 101C174.235 98.6501 174.414 96.2944 174.562 93.9375C174.688 92.002 174.688 92.002 174.816 90.0273C174.877 89.0283 174.938 88.0293 175 87C174.129 87.4357 173.257 87.8714 172.359 88.3203C171.789 88.6054 171.219 88.8904 170.631 89.1841C169.366 89.8168 168.102 90.4506 166.838 91.0855C163.773 92.6235 160.702 94.1427 157.609 95.625C147.593 100.457 142.211 104.985 137 115C135.99 118.03 135.833 120.228 135.754 123.402C135.721 124.457 135.688 125.513 135.654 126.6C135.593 128.821 135.536 131.042 135.482 133.264C135.448 134.32 135.414 135.376 135.379 136.465C135.341 137.913 135.341 137.913 135.303 139.39C134.996 142.038 134.345 143.721 133 146C132.67 146 132.34 146 132 146C131.032 142.087 130.842 138.318 130.71 134.312C130.359 124.016 129.906 114.203 123.07 105.914C118.396 101.593 112.609 98.9025 107 96C104.99 94.9435 102.981 93.8862 100.973 92.8281C95.3267 89.8628 89.6675 86.9238 84 84C84 82.35 84 80.7 84 79C87.1248 77.3538 90.2499 75.7081 93.375 74.0625C94.7092 73.3596 94.7092 73.3596 96.0703 72.6426C96.9211 72.1946 97.7719 71.7467 98.6484 71.2852C99.434 70.8715 100.219 70.4577 101.029 70.0315C104.972 67.9681 106.552 67.9421 111 69Z" fill="#4FE8ED"/>
<path d="M228.188 -0.499987C228.994 -0.530441 229.8 -0.560895 230.631 -0.592272C234.824 -0.594958 237.266 -0.182823 240.551 2.53126C241.763 3.75329 241.763 3.75329 243 5.00001C242.67 5.99001 242.34 6.98001 242 8.00001C241.01 6.51501 241.01 6.51501 240 5.00001C235.526 6.42478 233.02 8.6198 229.738 11.937C229.238 12.4381 228.739 12.9391 228.223 13.4554C226.579 15.1066 224.946 16.7681 223.312 18.4297C222.167 19.5838 221.02 20.7372 219.872 21.8899C216.856 24.9234 213.848 27.9652 210.843 31.0094C206.035 35.8765 201.214 40.7311 196.393 45.5849C194.715 47.2772 193.04 48.9732 191.366 50.6699C190.332 51.7148 189.297 52.7595 188.262 53.8042C187.364 54.7131 186.467 55.6219 185.542 56.5583C183 59 183 59 180.257 61.1841C177.909 62.8635 177.909 62.8635 176.625 65.25C175 67 175 67 171.688 67.4375C167.768 66.9725 165.469 65.8068 162 64C158.262 63.2863 158.262 63.2863 155 63C154.505 63.99 154.505 63.99 154 65C154.539 61.0248 156.386 59.3248 159.254 56.6289C160.108 55.8071 160.962 54.9854 161.842 54.1387C163.656 52.4211 165.473 50.7076 167.295 48.9981C168.574 47.7635 168.574 47.7635 169.879 46.5039C171.063 45.3874 171.063 45.3874 172.272 44.2483C174.312 41.594 174.379 40.2681 174 37C174.598 36.9175 175.196 36.835 175.812 36.75C178.597 35.7955 179.433 34.4287 181 32C180.185 31.1995 179.371 30.399 178.531 29.5742C175.185 25.5505 175.32 21.8657 175.5 16.8125C175.497 16.0062 175.495 15.1999 175.492 14.3692C175.59 8.50612 175.59 8.50612 177.388 6.28785C179.602 4.51917 181.316 4.36742 184.125 4.00001C185.281 3.8479 186.438 3.69579 187.629 3.53908C188.305 3.4569 188.98 3.37472 189.676 3.29005C192.359 2.95515 195.036 2.58211 197.715 2.21095C207.847 0.848729 217.959 -0.30581 228.188 -0.499987Z" fill="#EF43D9"/>
<path d="M74.9929 36.7197C77.1315 37.6682 79.1853 38.7128 81.25 39.8125C81.9564 40.1689 82.6628 40.5254 83.3906 40.8926C86.7116 42.6066 89.5634 44.0952 92 47C92.2656 49.7422 92.2656 49.7422 92.25 52.875C92.3357 57.2139 92.3357 57.2139 94.6133 60.6523C96.5175 61.8436 96.5175 61.8436 98.5039 62.6445C100 64 100 64 100.215 67.6367C100.144 68.7466 100.073 69.8565 100 71C98.8566 71.6381 97.7132 72.2762 96.5352 72.9336C95.0442 73.7681 93.5533 74.6028 92.0625 75.4375C91.3078 75.8584 90.553 76.2793 89.7754 76.7129C88.6974 77.3171 88.6974 77.3171 87.5977 77.9336C86.9326 78.3054 86.2675 78.6772 85.5823 79.0603C84.0142 79.9035 84.0142 79.9035 83 81C82.7681 82.5147 82.5878 84.0375 82.4375 85.5625C82.3537 86.3888 82.2699 87.2151 82.1836 88.0664C82.0927 89.0235 82.0927 89.0235 82 90C78.4565 91.6199 75.8728 92.1041 72 92C71.9858 91.108 71.9716 90.2159 71.957 89.2969C71.9093 88.1264 71.8616 86.9559 71.8125 85.75C71.7603 84.0098 71.7603 84.0098 71.707 82.2344C71.2726 78.9528 71.2726 78.9528 69.1172 76.9375C64.6236 74.1445 60.024 71.6547 55.3125 69.25C54.3696 68.7434 53.4266 68.2368 52.4551 67.7148C45.1429 63.9859 38.8497 62.4481 30.875 65C30.2563 65.33 29.6375 65.66 29 66C30.831 58.6761 34.7692 53.0902 41.1875 49.125C43.116 48.0667 45.0554 47.0284 47 46C48.5425 45.137 50.0841 44.2722 51.625 43.4062C53.3115 42.4774 54.999 41.5503 56.6875 40.625C57.4953 40.1714 58.3032 39.7178 59.1355 39.2505C64.5293 36.3588 68.8828 34.5131 74.9929 36.7197Z" fill="#FA9F37"/>
<path d="M174 165C174.66 165.33 175.32 165.66 176 166C176 176.56 176 187.12 176 198C176.99 198.495 176.99 198.495 178 199C177.34 199 176.68 199 176 199C176 201.97 176 204.94 176 208C175.019 208.485 174.038 208.969 173.027 209.469C165.306 213.299 157.636 217.204 150.051 221.297C148.37 222.203 146.685 223.102 145 224C144.037 224.565 143.074 225.129 142.082 225.711C138.272 227.305 134.869 227.406 130.812 227.312C130.102 227.316 129.391 227.319 128.658 227.322C124.914 227.284 123.186 227.124 120 225C120.687 224.685 121.374 224.371 122.082 224.047C122.983 223.619 123.884 223.191 124.812 222.75C125.706 222.332 126.599 221.915 127.52 221.484C130.641 219.616 132.435 217.76 133.558 214.264C134.118 211.396 134.22 208.624 134.316 205.703C134.358 204.498 134.4 203.293 134.443 202.051C134.483 200.797 134.522 199.542 134.562 198.25C134.606 196.98 134.649 195.711 134.693 194.402C134.799 191.268 134.901 188.134 135 185C138.432 183.242 141.817 181.636 145.438 180.312C150.87 178.198 155.909 175.465 160.998 172.642C165.801 170 165.801 170 168 170C168 169.34 168 168.68 168 168C169.965 166.932 171.969 165.934 174 165Z" fill="#B233AE"/>
<path d="M173 163C173.495 164.485 173.495 164.485 174 166C172.02 166.66 170.04 167.32 168 168C168 168.66 168 169.32 168 170C164.36 171.949 160.712 173.882 157.062 175.812C156.041 176.36 155.019 176.907 153.967 177.471C148.071 180.579 142.391 183.101 136 185C135.985 185.781 135.971 186.563 135.956 187.367C135.881 190.933 135.784 194.498 135.688 198.062C135.665 199.292 135.642 200.521 135.619 201.787C135.201 215.883 135.201 215.883 129.625 221.312C126.073 223.596 123.635 225.144 119.332 224.766C115.272 223.833 111.851 222.264 108.125 220.438C107.393 220.083 106.66 219.729 105.906 219.364C104.374 218.621 102.845 217.875 101.316 217.126C99.0337 216.016 96.7381 214.939 94.4375 213.867C92.9996 213.183 91.5621 212.498 90.125 211.812C89.4536 211.504 88.7821 211.196 88.0903 210.879C83.9145 208.848 82.2212 206.997 80 203C76.4008 202.104 76.4008 202.104 73 202C73 201.67 73 201.34 73 201C76.465 200.505 76.465 200.505 80 200C80.205 199.362 80.4099 198.724 80.6211 198.066C80.8905 197.24 81.1599 196.414 81.4375 195.562C81.7043 194.739 81.9712 193.915 82.2461 193.066C83 191 83 191 84 190C91.3196 189.161 95.6851 192.246 101.684 195.889C105.473 198.064 107.423 199.014 111.906 198.902C115.073 198.248 115.073 198.248 117 196C117.255 193.146 117.42 190.359 117.5 187.5C117.73 179.27 117.73 179.27 120 177C126.087 177.543 126.087 177.543 129 179C136.512 179.844 141.392 177.303 147.938 173.812C149.344 173.088 149.344 173.088 150.779 172.35C154.402 170.474 158.002 168.586 161.52 166.521C162.298 166.064 163.077 165.607 163.879 165.137C164.556 164.725 165.234 164.313 165.932 163.889C168.411 162.823 170.329 162.841 173 163Z" fill="#E6467C"/>
<path d="M198 101C199.785 102.073 199.785 102.073 201 104C201.571 108.344 201.472 112.709 201.446 117.086C201.438 119.229 201.466 121.369 201.498 123.512C201.581 136.981 201.581 136.981 197 142C193.528 144.411 189.893 146.344 186.125 148.25C185.144 148.766 184.163 149.281 183.152 149.812C180.445 151.23 177.725 152.618 175 154C173.848 154.606 172.695 155.212 171.508 155.836C168.445 157.258 166.337 157.455 163 157C159.72 152.08 160.589 146.248 160.574 140.486C160.563 138.271 160.513 136.058 160.463 133.844C160.294 120.546 160.294 120.546 164.058 116.456C168.293 113.281 172.914 110.84 177.638 108.49C179.506 107.56 181.357 106.6 183.207 105.635C193.636 100.31 193.636 100.31 198 101Z" fill="#FA796C"/>
<path d="M44 63C48.3348 64.5365 52.3189 66.5941 56.375 68.75C57.9741 69.5582 57.9741 69.5582 59.6055 70.3828C68.6943 75.0701 68.6943 75.0701 72 79C72.3906 82.2344 72.3906 82.2344 72.25 85.75C72.2139 86.9205 72.1778 88.0909 72.1406 89.2969C72.0942 90.1889 72.0478 91.0809 72 92C66.5609 90.3383 61.8701 87.8746 56.9023 85.1445C53.6552 83.864 52.2535 83.8441 49 85C46.1895 87.8104 46.7241 89.6224 46.6812 93.561C46.6711 94.2343 46.6611 94.9076 46.6507 95.6013C46.6198 97.8305 46.6028 100.06 46.5859 102.289C46.5672 103.833 46.5477 105.377 46.5273 106.921C46.4758 110.989 46.4363 115.056 46.3991 119.123C46.3591 123.272 46.308 127.421 46.2578 131.57C46.1609 139.713 46.0766 147.857 46 156C45.67 156 45.34 156 45 156C45 145.44 45 134.88 45 124C43.68 123.34 42.36 122.68 41 122C39.4926 121.244 37.9928 120.472 36.5 119.687C35.7472 119.299 34.9944 118.911 34.2188 118.512C31.337 116.548 29.8686 114.987 28 112C27.4102 108.675 27.4392 105.397 27.4688 102.027C27.4649 101.067 27.4611 100.107 27.4572 99.1181C27.4544 97.0933 27.4618 95.0684 27.4785 93.0437C27.5 89.9443 27.4787 86.8473 27.4531 83.748C27.4558 81.7786 27.4609 79.8092 27.4688 77.8398C27.4607 76.9137 27.4526 75.9876 27.4442 75.0334C27.5378 68.6183 27.5378 68.6183 29.9082 65.4475C34.4777 62.2855 38.5593 62.2717 44 63Z" fill="#FA7A16"/>
<path d="M83 80C83.0412 80.6187 83.0825 81.2375 83.125 81.875C83.4137 82.5763 83.7025 83.2775 84 84C85.9864 84.706 87.9894 85.366 90 86C94.1723 87.9281 98.2334 90.0704 102.312 92.1875C103.402 92.7399 104.492 93.2922 105.615 93.8613C114.954 98.6961 124.693 103.882 129 114C131.079 120.735 131.263 126.919 131.195 133.938C131.192 135.058 131.19 136.179 131.187 137.333C131.176 140.889 131.151 144.444 131.125 148C131.115 150.421 131.106 152.841 131.098 155.262C131.076 161.175 131.042 167.087 131 173C125.937 171.674 122.553 169.887 119 166C118.192 163.095 118.254 160.331 118.336 157.332C118.332 156.497 118.327 155.662 118.323 154.802C118.312 152.138 118.34 149.476 118.375 146.812C118.917 129.587 118.917 129.587 111.973 114.25C106.556 110.15 100.369 107.43 94.2832 104.461C92.7798 103.707 92.7798 103.707 91.2461 102.938C90.3353 102.493 89.4245 102.048 88.4861 101.59C85.5847 99.7344 83.912 97.8546 82 95C81.5742 91.4844 81.5742 91.4844 81.6875 87.75C81.712 86.5073 81.7365 85.2647 81.7617 83.9844C82 81 82 81 83 80Z" fill="#3CC8BD"/>
<path d="M219 71C224.543 72.0558 226.599 74.5406 229.703 78.9297C230.131 79.6129 230.559 80.2961 231 81C231.351 81.5254 231.703 82.0507 232.064 82.592C233.465 86.1959 233.285 89.7862 233.266 93.5977C233.268 94.4283 233.269 95.259 233.271 96.1149C233.273 97.8673 233.269 99.6198 233.261 101.372C233.25 104.056 233.261 106.74 233.273 109.424C233.272 111.128 233.27 112.831 233.266 114.535C233.27 115.338 233.274 116.141 233.278 116.969C233.245 120.833 233.193 122.71 231 126C229.886 126.144 228.773 126.289 227.625 126.438C223.438 127.087 222.76 127.973 220 131C216.24 133.24 213.411 134.613 209 134C206.088 131.088 206.676 128.044 206.664 124.141C206.657 123.359 206.651 122.577 206.644 121.771C206.634 120.113 206.629 118.456 206.629 116.798C206.625 114.273 206.589 111.751 206.551 109.227C206.545 107.615 206.541 106.003 206.539 104.391C206.525 103.64 206.51 102.89 206.496 102.117C206.55 95.8525 208.747 92.444 212.887 87.9531C213.778 87.1101 213.778 87.1101 214.688 86.25C218.134 83.0704 218.134 83.0704 219.098 78.6172C219.086 77.7123 219.074 76.8073 219.062 75.875C219.053 74.9649 219.044 74.0548 219.035 73.1172C219.024 72.4185 219.012 71.7198 219 71Z" fill="#1AAAC2"/>
<path d="M132 32C131.67 32.33 131.34 32.66 131 33C130.84 35.8098 130.74 38.5977 130.684 41.4102C130.663 42.2522 130.642 43.0942 130.621 43.9618C130.555 46.6619 130.496 49.3622 130.438 52.0625C130.394 53.8887 130.351 55.7149 130.307 57.541C130.199 62.0272 130.098 66.5136 130 71C124.639 70.0328 120.61 68.1202 116.125 65C112.496 62.6775 109.065 61.4018 105 60C105 59.34 105 58.68 105 58C104.134 57.7525 103.267 57.505 102.375 57.25C98.7234 55.8976 95.995 54.4958 93 52C92.625 49.25 92.625 49.25 93 47C92.1879 46.6017 92.1879 46.6017 91.3594 46.1953C88.6247 44.8099 85.9388 43.3474 83.25 41.875C81.7727 41.0668 81.7727 41.0668 80.2656 40.2422C79.1441 39.6273 79.1441 39.6273 78 39C78 37.35 78 35.7 78 34C83.6232 34.6077 87.8745 36.8292 92.7012 39.5605C97.0518 41.8876 100.107 42.699 105 42C108.378 40.6069 111.515 38.8693 114.688 37.0625C116.356 36.133 118.027 35.2071 119.699 34.2852C120.43 33.8714 121.16 33.4577 121.913 33.0315C125.611 31.2039 128.048 30.7297 132 32Z" fill="#992595"/>
<path d="M242 28C242.33 28 242.66 28 243 28C243.025 33.481 243.043 38.9619 243.055 44.4429C243.06 46.3071 243.067 48.1714 243.075 50.0356C243.088 52.7165 243.093 55.3973 243.098 58.0781C243.103 58.9106 243.108 59.743 243.113 60.6006C243.113 61.3812 243.113 62.1617 243.114 62.9658C243.116 63.6498 243.118 64.3337 243.12 65.0384C242.99 67.1632 242.688 68.9837 242 71C238.689 72.6554 235.548 72.7798 232 72C229.484 70.3156 227.303 68.486 225.078 66.4336C223.117 64.7604 223.117 64.7604 220.797 65.1602C218.81 65.8621 218.81 65.8621 218 68C217.67 68.66 217.34 69.32 217 70C216.383 70.1438 215.767 70.2876 215.131 70.4358C212.542 71.1213 211.673 72.049 209.898 74.0273C209.33 74.6505 208.762 75.2737 208.177 75.9158C207.582 76.5829 206.988 77.2501 206.375 77.9375C205.129 79.3032 203.881 80.6678 202.633 82.0312C202.02 82.7041 201.406 83.377 200.774 84.0703C198.315 86.7446 195.8 89.3499 193.25 91.9375C192.471 92.7303 191.693 93.523 190.891 94.3398C189 96 189 96 187 96C186.808 93.6627 186.671 91.3415 186.562 89C186.481 87.7006 186.4 86.4013 186.316 85.0625C186.736 79.571 190.234 76.7036 194 73C194.975 72.0106 195.948 71.0196 196.92 70.0273C200.233 66.6589 203.584 63.3285 206.938 60C208.11 58.8323 209.283 57.6643 210.455 56.4961C213.301 53.6614 216.149 50.8298 219 48C220.771 49.1246 222.542 50.2497 224.312 51.375C225.299 52.0015 226.285 52.628 227.301 53.2734C229.213 54.4965 231.111 55.7409 233 57C235.961 56.6411 236.847 56.1534 239 54C240.262 56.5248 240.099 58.312 240.062 61.125C240.053 62.0351 240.044 62.9452 240.035 63.8828C240.024 64.5815 240.012 65.2802 240 66C240.66 66 241.32 66 242 66C242 53.46 242 40.92 242 28Z" fill="#3893D8"/>
<path d="M64.3125 104.5C68.28 105.238 69.7753 107.849 72 111C74.4996 115.004 76.8483 119.088 79.1875 123.188C80.4303 125.348 81.6738 127.508 82.918 129.668C83.4622 130.62 84.0064 131.571 84.5671 132.552C85.6513 134.404 86.8093 136.214 88 138C88.0529 141.131 87.6718 143.168 85.6777 145.638C83.9264 147.378 82.1158 149.008 80.25 150.625C79.6287 151.184 79.0073 151.744 78.3672 152.32C76.5971 153.904 74.8052 155.457 73 157C72.0796 157.791 71.1592 158.583 70.2109 159.398C68 161 68 161 65.375 161C62.4629 159.774 61.4716 158.788 60 156C59.375 153.688 59.375 153.688 60 151C63.9462 146.041 69.1599 142.05 74 138C72.6763 134.475 71.1133 131.322 69.1797 128.094C68.3772 126.731 68.3772 126.731 67.5586 125.34C66.4342 123.443 65.3039 121.55 64.168 119.66C63.6356 118.751 63.1032 117.843 62.5547 116.906C61.8197 115.674 61.8197 115.674 61.0698 114.416C59.8653 111.696 59.6387 109.943 60 107C62 105 62 105 64.3125 104.5Z" fill="#F6AE4A"/>
<path d="M88 82C92.6476 82.6179 96.4529 84.5563 100.562 86.6875C101.613 87.2223 101.613 87.2223 102.684 87.7678C104.109 88.4933 105.533 89.221 106.955 89.9512C109.9 91.4617 112.855 92.9515 115.812 94.4375C116.747 94.9106 117.682 95.3837 118.645 95.8711C125.722 99.2632 134.678 99.0583 142.223 97.2109C146.134 95.8015 149.783 94.1086 153.5 92.25C156 91 156 91 159 91C158.887 92.7656 158.887 92.7656 158 95C155.27 96.8594 155.27 96.8594 151.812 98.75C146.199 101.99 142.083 105.221 139 111C138.468 111.985 137.935 112.97 137.387 113.984C135.222 119.159 135.508 124.662 135.438 130.188C135.403 132.327 135.36 134.466 135.309 136.605C135.296 137.545 135.284 138.485 135.271 139.454C134.991 142.083 134.334 143.739 133 146C132.67 146 132.34 146 132 146C131.032 142.087 130.842 138.318 130.71 134.312C130.359 124.013 129.897 114.228 123.086 105.922C118.407 101.611 112.605 98.9089 107 96C105.287 95.0925 103.575 94.1836 101.863 93.2734C97.253 90.8281 92.6306 88.4067 88 86C88 84.68 88 83.36 88 82Z" fill="#C5FBEB"/>
<path d="M90 59C94.0519 59.6234 96.9176 61.3379 100 64C100.172 67.6484 100.172 67.6484 100 71C98.8566 71.6381 97.7132 72.2762 96.5352 72.9336C95.0442 73.7681 93.5533 74.6028 92.0625 75.4375C90.9304 76.0688 90.9304 76.0688 89.7754 76.7129C88.6974 77.3171 88.6974 77.3171 87.5977 77.9336C86.9326 78.3054 86.2675 78.6772 85.5823 79.0603C84.0142 79.9035 84.0142 79.9035 83 81C82.7681 82.5147 82.5878 84.0375 82.4375 85.5625C82.3537 86.3888 82.2699 87.2151 82.1836 88.0664C82.0927 89.0235 82.0927 89.0235 82 90C78.4565 91.6199 75.8728 92.1041 72 92C71.9858 91.108 71.9716 90.2159 71.957 89.2969C71.9093 88.1264 71.8616 86.9559 71.8125 85.75C71.7603 84.0098 71.7603 84.0098 71.707 82.2344C71.2722 78.9043 71.2722 78.9043 68.9023 76.7969C65.0242 74.3959 60.981 72.489 56.8203 70.6445C52.1952 68.4697 52.1952 68.4697 51.0781 65.7812C51.0523 65.1934 51.0266 64.6056 51 64C55.5986 64.5382 58.7992 65.7899 62.8125 68.0625C68.1162 70.7469 72.1148 72.6128 78 71C86.0799 67.3832 86.0799 67.3832 93 62C92.01 61.01 91.02 60.02 90 59Z" fill="#FBD46B"/>
<path d="M168.672 21.3242C171.148 23.1064 171.777 24.287 173 27C169.253 28.8186 165.502 30.6288 161.75 32.4375C160.155 33.2119 160.155 33.2119 158.527 34.0019C157.503 34.495 156.478 34.9881 155.422 35.4961C154.479 35.9517 153.537 36.4073 152.565 36.8767C150.323 37.8586 148.422 38.6722 146 39C143.04 37.6295 140.283 36.1146 137.484 34.4492C133.584 32.3022 130.554 31.5217 126.133 32.3374C121.898 33.6529 118.144 35.8642 114.312 38.0625C112.668 39.0005 111.019 39.9292 109.363 40.8476C108.285 41.4665 108.285 41.4665 107.185 42.0979C104.65 43.1445 102.717 43.1641 100 43C101.357 39.7277 102.525 38.3581 105.668 36.7461C106.397 36.3665 107.126 35.9868 107.877 35.5957C108.639 35.2135 109.402 34.8313 110.188 34.4375C110.931 34.0514 111.674 33.6653 112.439 33.2676C126.99 25.7821 126.99 25.7821 135 28C137.6 29.2334 140.076 30.5578 142.543 32.0391C145.85 33.3323 147.587 32.943 151 32C153.481 30.8707 155.854 29.7193 158.25 28.4375C164.762 25 164.762 25 167 25C167 24.01 167 23.02 167 22C166.181 21.7615 165.363 21.523 164.52 21.2773C159.571 19.4813 155.13 16.9248 150.541 14.3652C141.729 9.56379 132.742 5.90206 122.651 8.63647C114.837 11.4442 107.547 15.0822 100.2 18.918C98.1121 20.0067 96.0175 21.0821 93.9219 22.1562C92.5751 22.8534 91.2287 23.5513 89.8828 24.25C88.9562 24.7252 88.9562 24.7252 88.0108 25.21C84.3354 27.1403 81.1571 29.3069 78 32C79.3342 28.8537 80.4947 27.3503 83.4375 25.625C84.1568 25.2009 84.8761 24.7768 85.6172 24.3398C90.0536 21.8453 94.5156 19.4073 99 17C100.241 16.316 101.482 15.631 102.723 14.9453C128.392 0.837567 144.486 7.77617 168.672 21.3242Z" fill="#F98EF1"/>
<path d="M226 133C226.99 133.33 227.98 133.66 229 134C229 135.65 229 137.3 229 139C227.374 139.813 225.749 140.625 224.123 141.438C222.691 142.154 221.26 142.872 219.83 143.592C216.122 145.454 212.407 147.291 208.656 149.066C197.58 153.915 197.58 153.915 189 162C188.449 164.574 188.449 164.574 188.371 167.414C188.307 168.477 188.243 169.54 188.177 170.635C188.119 171.745 188.06 172.856 188 174C187.839 176.191 187.672 178.381 187.5 180.57C187.247 183.888 186.994 187.205 186.75 190.523C186.667 191.591 186.585 192.658 186.5 193.758C186.428 194.718 186.356 195.679 186.281 196.668C186 199 186 199 185 201C182.36 201 179.72 201 177 201C176.67 201.99 176.34 202.98 176 204C175.688 201.688 175.688 201.688 176 199C178.438 197.375 178.438 197.375 181 196C182.19 192.429 182.154 189.162 182.176 185.445C182.199 183.928 182.223 182.411 182.248 180.895C182.283 178.509 182.313 176.124 182.326 173.739C182.341 171.432 182.382 169.127 182.426 166.82C182.424 166.112 182.422 165.403 182.42 164.673C182.539 159.831 183.514 157.354 187 154C189.391 152.426 189.391 152.426 192.035 151.098C193.01 150.599 193.986 150.101 194.99 149.588C196.004 149.085 197.018 148.581 198.062 148.062C200.054 147.054 202.045 146.045 204.035 145.035C205.019 144.542 206.003 144.048 207.016 143.54C210.952 141.509 214.791 139.319 218.623 137.099C221 136 221 136 225 136C225.33 135.01 225.66 134.02 226 133Z" fill="#D967EE"/>
<path d="M31 118C35.7574 118.291 39.6583 119.044 43.531 121.933C46.981 126.788 45.8564 133.985 45.75 139.75C45.1733 155.805 45.1733 155.805 52.3896 169.655C55.7582 172.469 59.6978 174.28 63.625 176.188C65.328 177.03 67.0287 177.878 68.7266 178.73C69.475 179.096 70.2235 179.461 70.9946 179.837C73.0846 181.049 74.5081 182.098 76 184C76.2171 186.811 76.2828 189.388 76.1875 192.188C76.1672 193.312 76.1672 193.312 76.1465 194.459C76.1112 196.306 76.0574 198.153 76 200C75.34 200 74.68 200 74 200C73.853 199.12 73.7061 198.239 73.5547 197.332C72.3936 189.818 72.3936 189.818 68.1875 183.812C65.1489 182.085 62.3772 180.885 59 180C59 179.34 59 178.68 59 178C57.7625 177.722 57.7625 177.722 56.5 177.438C50.1436 174.827 45.761 171.063 42.8047 164.82C40.0248 157.439 40.3219 149.652 40.25 141.875C40.2218 140.331 40.1919 138.786 40.1602 137.242C40.0869 133.495 40.037 129.748 40 126C36.7 124.35 33.4 122.7 30 121C30.33 120.01 30.66 119.02 31 118Z" fill="#FB9C2D"/>
<path d="M173 27C173.33 30.3 173.66 33.6 174 37C172.68 37.33 171.36 37.66 170 38C167.816 39.9931 165.781 41.9876 163.75 44.125C162.594 45.3117 161.437 46.4966 160.277 47.6797C159.438 48.5377 159.438 48.5377 158.582 49.4131C151.04 56.9798 151.04 56.9798 147 59C146.67 52.4 146.34 45.8 146 39C157.719 33.1406 157.719 33.1406 159.852 32.0801C161.311 31.3464 162.764 30.5998 164.211 29.8418C164.915 29.4763 165.619 29.1109 166.344 28.7344C166.975 28.4015 167.606 28.0686 168.256 27.7256C170 27 170 27 173 27Z" fill="#B539AB"/>
<path d="M173 163C173.495 164.485 173.495 164.485 174 166C172.02 166.66 170.04 167.32 168 168C168 168.66 168 169.32 168 170C164.36 171.949 160.712 173.882 157.062 175.812C156.041 176.36 155.019 176.907 153.967 177.471C148.071 180.579 142.391 183.101 136 185C135.979 186.897 135.979 186.897 135.957 188.832C135.91 190.492 135.862 192.152 135.812 193.812C135.807 194.646 135.801 195.479 135.795 196.338C135.751 197.542 135.751 197.542 135.707 198.77C135.691 199.508 135.676 200.246 135.659 201.007C135 203 135 203 130 206C129.67 199.07 129.34 192.14 129 185C126.525 184.01 126.525 184.01 124 183C124 182.34 124 181.68 124 181C121.525 180.01 121.525 180.01 119 179C119.33 178.34 119.66 177.68 120 177C126.75 177.875 126.75 177.875 129 179C136.512 179.844 141.392 177.303 147.938 173.812C148.875 173.33 149.813 172.847 150.779 172.35C154.402 170.474 158.002 168.586 161.52 166.521C162.298 166.064 163.077 165.607 163.879 165.137C164.556 164.725 165.234 164.313 165.932 163.889C168.411 162.823 170.329 162.841 173 163Z" fill="#E95C68"/>
<path d="M232 137C232.33 137 232.66 137 233 137C233.118 141.437 233.188 145.874 233.25 150.312C233.3 152.177 233.3 152.177 233.352 154.08C233.463 164.662 231.847 174.222 224.285 182.105C219.349 186.198 213.673 189.078 208 192C207.316 192.357 206.631 192.713 205.926 193.081C203.831 194.168 201.73 195.244 199.625 196.312C198.984 196.638 198.343 196.963 197.682 197.299C184.57 203.807 184.57 203.807 178 202C178 201.67 178 201.34 178 201C180.31 201 182.62 201 185 201C185 200.34 185 199.68 185 199C188.445 196.704 190.938 196.46 195 196C195.33 195.01 195.66 194.02 196 193C198.438 191.75 198.438 191.75 201 191C201.66 191.33 202.32 191.66 203 192C203.248 191.443 203.495 190.886 203.75 190.312C206.087 185.988 208.838 183.024 212.812 180.188C217.243 176.982 220.536 173.2 224 169C225.123 167.707 226.248 166.415 227.375 165.125C230.448 161.592 231.135 159.487 231.316 154.773C231.379 153.227 231.379 153.227 231.443 151.648C231.483 150.568 231.522 149.488 231.562 148.375C231.627 146.743 231.627 146.743 231.693 145.078C231.8 142.386 231.902 139.693 232 137Z" fill="#6FBDEC"/>
<path d="M228.188 -0.499987C228.994 -0.530441 229.8 -0.560895 230.631 -0.592272C234.824 -0.594958 237.266 -0.182823 240.551 2.53126C241.763 3.75329 241.763 3.75329 243 5.00001C242.67 5.99001 242.34 6.98001 242 8.00001C241.01 6.51501 241.01 6.51501 240 5.00001C239.449 5.16695 238.898 5.33388 238.331 5.50587C235.685 6.06677 233.411 6.00352 230.707 5.90626C220.3 5.82472 210.008 7.29122 199.688 8.50001C197.579 8.74157 195.47 8.98246 193.361 9.22267C188.24 9.80748 183.12 10.4013 178 11C177.973 13.0624 177.954 15.125 177.938 17.1875C177.926 18.3361 177.914 19.4846 177.902 20.668C177.988 23.593 178.322 26.1632 179 29C177.118 27.4149 176.101 26.5081 175.612 24.0547C175.608 23.3354 175.605 22.6161 175.602 21.875C175.598 21.0861 175.594 20.2972 175.59 19.4844C175.601 18.6645 175.613 17.8447 175.625 17C175.613 16.1802 175.602 15.3603 175.59 14.5156C175.596 13.3323 175.596 13.3323 175.602 12.125C175.605 11.4057 175.608 10.6864 175.612 9.94533C176.11 7.44881 177.028 6.56346 179 5.00001C181.258 4.37501 181.258 4.37501 184.125 4.00001C185.281 3.8479 186.438 3.69579 187.629 3.53908C188.305 3.4569 188.98 3.37472 189.676 3.29005C192.359 2.95515 195.036 2.58211 197.715 2.21095C207.847 0.848729 217.959 -0.30581 228.188 -0.499987Z" fill="#EF9AE7"/>
<path d="M242 28C242.33 28 242.66 28 243 28C243.025 33.481 243.043 38.9619 243.055 44.4429C243.06 46.3071 243.067 48.1714 243.075 50.0356C243.088 52.7165 243.093 55.3973 243.098 58.0781C243.103 58.9106 243.108 59.743 243.113 60.6006C243.113 61.7714 243.113 61.7714 243.114 62.9658C243.116 63.6498 243.118 64.3337 243.12 65.0384C242.99 67.1632 242.688 68.9837 242 71C238.678 72.6608 235.562 72.745 232 72C226.782 69.0122 222.636 65.4652 220 60C219.488 56.8867 219.488 56.8867 219.312 53.6875C219.247 52.6189 219.181 51.5502 219.113 50.4492C219.076 49.641 219.039 48.8327 219 48C220.771 49.1246 222.542 50.2497 224.312 51.375C225.792 52.3147 225.792 52.3147 227.301 53.2734C229.213 54.4965 231.111 55.7409 233 57C235.961 56.6411 236.847 56.1534 239 54C240.262 56.5248 240.099 58.312 240.062 61.125C240.053 62.0351 240.044 62.9452 240.035 63.8828C240.024 64.5815 240.012 65.2802 240 66C240.66 66 241.32 66 242 66C242 53.46 242 40.92 242 28Z" fill="#2D76C9"/>
<path d="M77 33C77.33 33 77.66 33 78 33C78 34.98 78 36.96 78 39C76.9791 38.505 76.9791 38.505 75.9375 38C71.3863 36.4506 67.5281 36.4315 63.0056 38.114C62.0331 38.6268 61.0606 39.1396 60.0586 39.668C58.4411 40.5139 58.4411 40.5139 56.791 41.377C55.6844 41.9744 54.5777 42.5719 53.4375 43.1875C52.327 43.7656 51.2164 44.3438 50.0723 44.9395C39.482 50.4199 39.482 50.4199 32.1875 59.5625C31.59 60.6782 31.59 60.6782 30.9805 61.8164C29.3917 65.3548 28.8734 68.5336 28.823 72.3979C28.8102 73.2592 28.7973 74.1204 28.7841 75.0078C28.7767 75.9308 28.7693 76.8537 28.7617 77.8047C28.7536 78.7614 28.7456 79.7182 28.7373 80.7039C28.7234 82.7262 28.7127 84.7486 28.7048 86.771C28.6876 89.8569 28.6437 92.9417 28.5996 96.0273C28.5895 97.9948 28.581 99.9622 28.5742 101.93C28.548 103.308 28.548 103.308 28.5212 104.714C28.5405 110.458 29.2997 113.555 33 118C31.02 118.99 31.02 118.99 29 120C28.8467 126.492 28.7423 132.983 28.6704 139.476C28.6404 141.681 28.5996 143.885 28.5474 146.09C27.6338 163.184 27.6338 163.184 35 178C39.4798 182.674 44.2725 186.017 50 189C49.34 189.33 48.68 189.66 48 190C42.4775 187.722 37.9371 184.484 34 180C33.1337 179.154 32.2675 178.309 31.375 177.438C24.2657 168.503 25.5635 154.989 25.6638 144.225C25.6877 141.478 25.6843 138.731 25.6777 135.984C25.6833 134.229 25.6904 132.474 25.6992 130.719C25.6983 129.902 25.6974 129.085 25.6965 128.244C25.7449 124.374 25.7912 121.276 28 118C28.66 118 29.32 118 30 118C30 117.34 30 116.68 30 116C29.34 116 28.68 116 28 116C25.6778 108.877 25.6948 101.863 25.7393 94.4387C25.7499 92.3345 25.7394 90.2311 25.7266 88.127C25.6982 61.7243 25.6982 61.7243 33.5403 53.3564C39.3068 48.1266 45.6517 44.6435 52.5625 41.125C53.6601 40.5449 54.7578 39.9648 55.8887 39.3672C68.4726 32.8742 68.4726 32.8742 74.9375 34.9375C75.9584 35.4634 75.9584 35.4634 77 36C77 35.01 77 34.02 77 33Z" fill="#F7E5D1"/>
<path d="M219 71C224.543 72.0558 226.599 74.5406 229.703 78.9297C230.131 79.6129 230.559 80.2961 231 81C231.351 81.5254 231.703 82.0507 232.064 82.592C233.465 86.1959 233.285 89.7862 233.266 93.5977C233.268 94.4283 233.269 95.259 233.271 96.1149C233.273 97.8673 233.269 99.6198 233.261 101.372C233.25 104.056 233.261 106.74 233.273 109.424C233.272 111.128 233.27 112.831 233.266 114.535C233.27 115.338 233.274 116.141 233.278 116.969C233.245 120.833 233.193 122.71 231 126C230.34 125.67 229.68 125.34 229 125C229.66 124.01 230.32 123.02 231 122C231.24 119.536 231.372 117.175 231.414 114.707C231.433 114.001 231.453 113.295 231.473 112.568C231.532 110.316 231.579 108.064 231.625 105.812C231.663 104.284 231.702 102.756 231.742 101.229C231.838 97.4859 231.922 93.7431 232 90C228.232 88.7441 224.897 88.2635 221 89C216.476 91.4277 213.877 94.6111 212.062 99.375C211.537 101.169 211.537 101.169 211 103C210.01 102.34 209.02 101.68 208 101C207.375 97.875 207.375 97.875 208 94C210.686 90.1245 214.07 86.9058 217.438 83.625C219.841 79.587 219.321 75.5857 219 71Z" fill="#61EEE4"/>
<path d="M84 160C87.5766 160.357 90.2853 161.497 93.3906 163.25C94.1821 163.693 94.9736 164.137 95.7891 164.594C96.6012 165.058 97.4133 165.522 98.25 166C99.0776 166.464 99.9052 166.928 100.758 167.406C106.831 170.831 106.831 170.831 108 172C108.141 174.671 108.042 177.324 108 180C105.253 180.769 103.56 181.195 100.828 180.243C100.119 179.838 99.41 179.433 98.6797 179.016C97.8972 178.575 97.1148 178.134 96.3086 177.68C95.5055 177.208 94.7024 176.736 93.875 176.25C93.0642 175.794 92.2534 175.337 91.418 174.867C84.3148 170.805 84.3148 170.805 82 168C81.6875 164.938 81.6875 164.938 82 162C82.66 161.34 83.32 160.68 84 160Z" fill="#F19033"/>
<path d="M48.75 81.6875C49.8225 81.7906 50.895 81.8937 52 82C51.1886 82.6827 50.3772 83.3653 49.5412 84.0686C46.4397 87.6463 46.3662 89.2314 46.3406 93.9016C46.3301 94.5753 46.3196 95.2491 46.3088 95.9432C46.2801 98.1566 46.2863 100.368 46.293 102.582C46.2798 104.122 46.2645 105.662 46.2471 107.202C46.2073 111.244 46.1971 115.286 46.1931 119.329C46.1838 123.458 46.1464 127.588 46.1113 131.717C46.0468 139.811 46.0135 147.905 46 156C45.67 156 45.34 156 45 156C45 145.44 45 134.88 45 124C43.68 123.34 42.36 122.68 41 122C39.4317 121.178 37.8693 120.344 36.3125 119.5C35.5249 119.077 34.7373 118.654 33.9258 118.219C32 117 32 117 31 115C33.97 115 36.94 115 40 115C40.0093 114.178 40.0187 113.356 40.0283 112.509C40.0821 108.776 40.1657 105.045 40.25 101.312C40.2642 100.019 40.2784 98.7254 40.293 97.3926C40.3252 96.1454 40.3574 94.8982 40.3906 93.6133C40.422 91.893 40.422 91.893 40.4541 90.1379C41.3851 84.7864 43.2705 82.1441 48.75 81.6875Z" fill="#D95748"/>
<path d="M168 114C168.66 114.33 169.32 114.66 170 115C169.51 115.391 169.021 115.782 168.516 116.184C166.503 118.595 166.666 119.941 166.742 123.051C166.757 124.054 166.772 125.057 166.787 126.09C166.816 127.153 166.845 128.217 166.875 129.312C166.907 131.486 166.936 133.659 166.961 135.832C166.973 136.887 166.986 137.943 166.999 139.03C167.001 144.712 166.557 150.347 166 156C166.949 155.505 167.897 155.01 168.875 154.5C172 153 172 153 174 153C174 152.34 174 151.68 174 151C176.432 149.8 178.87 148.615 181.312 147.438C182.348 146.924 182.348 146.924 183.404 146.4C188.66 143.887 188.66 143.887 192 145C188.302 147.02 184.59 149.013 180.875 151C179.828 151.572 178.782 152.145 177.703 152.734C176.685 153.276 175.666 153.817 174.617 154.375C173.685 154.878 172.753 155.38 171.792 155.898C168.604 157.156 166.396 157.43 163 157C159.72 152.08 160.589 146.248 160.574 140.486C160.563 138.271 160.513 136.058 160.463 133.844C160.328 121.972 160.328 121.972 163.402 117.547C166 115 166 115 168 114Z" fill="#DC389D"/>
<path d="M100 64C100 66.31 100 68.62 100 71C98.2849 71.9571 98.2849 71.9571 96.5352 72.9336C95.0442 73.7681 93.5533 74.6028 92.0625 75.4375C91.3078 75.8584 90.553 76.2793 89.7754 76.7129C89.0567 77.1157 88.3381 77.5186 87.5977 77.9336C86.9326 78.3054 86.2675 78.6772 85.5823 79.0603C84.0142 79.9035 84.0142 79.9035 83 81C82.7681 82.5147 82.5878 84.0375 82.4375 85.5625C82.3118 86.8019 82.3118 86.8019 82.1836 88.0664C82.123 88.7045 82.0624 89.3426 82 90C79.69 90.66 77.38 91.32 75 92C75.6251 79.6913 75.6251 79.6913 79 76C94.3812 64 94.3812 64 100 64Z" fill="#EA6A42"/>
<path d="M222 19C222.495 19.99 222.495 19.99 223 21C222.11 22.2331 221.212 23.4613 220.312 24.6875C219.814 25.372 219.315 26.0565 218.801 26.7617C216.704 29.368 214.39 31.6695 212 34C208.87 37.0994 205.748 40.2064 202.625 43.3125C201.8 44.1291 200.975 44.9457 200.125 45.7871C194.462 51.4278 189.147 57.2635 184 63.375C181.241 65.6164 178.424 66.2098 175 67C177.68 62.6801 180.374 59.5131 184.234 56.1367C192.223 49.0148 199.708 41.4006 207.25 33.8125C208.689 32.3689 210.127 30.9255 211.566 29.4824C215.047 25.991 218.524 22.4964 222 19Z" fill="#89EAF6"/>
<path d="M183 159C183.33 159 183.66 159 184 159C184.66 161.31 185.32 163.62 186 166C186.66 164.68 187.32 163.36 188 162C188.219 171.379 188.005 180.597 187.062 189.938C186.976 190.807 186.889 191.677 186.799 192.573C186.137 198.726 186.137 198.726 185 201C182.36 201 179.72 201 177 201C176.67 201.99 176.34 202.98 176 204C175.688 201.688 175.688 201.688 176 199C178.438 197.375 178.438 197.375 181 196C182.202 192.395 182.23 189.027 182.316 185.27C182.337 184.519 182.358 183.769 182.379 182.996C182.445 180.601 182.504 178.207 182.562 175.812C182.606 174.188 182.649 172.564 182.693 170.939C182.8 166.96 182.902 162.98 183 159Z" fill="#C669EE"/>
<path d="M120 177C125.65 177.601 130.662 179.075 136 181C136 181.66 136 182.32 136 183C136.66 183.33 137.32 183.66 138 184C137.01 184.495 137.01 184.495 136 185C135.979 186.897 135.979 186.897 135.957 188.832C135.91 190.492 135.862 192.152 135.812 193.812C135.807 194.646 135.801 195.479 135.795 196.338C135.751 197.542 135.751 197.542 135.707 198.77C135.691 199.508 135.676 200.246 135.659 201.007C135 203 135 203 130 206C129.67 199.07 129.34 192.14 129 185C126.525 184.01 126.525 184.01 124 183C124 182.34 124 181.68 124 181C121.525 180.01 121.525 180.01 119 179C119.33 178.34 119.66 177.68 120 177Z" fill="#FB6877"/>
<path d="M64.3125 104.5C68.28 105.238 69.7753 107.849 72 111C74.4996 115.004 76.8483 119.088 79.1875 123.188C80.4303 125.348 81.6738 127.508 82.918 129.668C83.4622 130.62 84.0064 131.571 84.5671 132.552C85.6513 134.404 86.8093 136.214 88 138C87.625 140.688 87.625 140.688 87 143C84.2983 139.619 82.2192 135.96 80.125 132.188C78.0024 128.411 75.9003 124.671 73.3125 121.188C70.4981 117.308 68.2507 113.224 66 109C64.68 109 63.36 109 62 109C63.423 112.456 64.7413 115.594 66.75 118.75C67.3688 119.864 67.3688 119.864 68 121C67.67 121.99 67.34 122.98 67 124C65.8199 122.112 64.6564 120.215 63.5 118.312C62.8503 117.257 62.2006 116.201 61.5313 115.113C60.0022 112.005 59.4773 110.392 60 107C62 105 62 105 64.3125 104.5Z" fill="#F2DB74"/>
<path d="M177 13C177.736 13.4705 178.472 13.941 179.23 14.4258C180.206 15.0484 181.182 15.671 182.187 16.3125C183.15 16.9274 184.113 17.5423 185.105 18.1758C187.716 19.8212 190.347 21.4237 193 23C191.837 26.4887 190.86 27.0998 187.937 29.1875C187.204 29.7173 186.471 30.2471 185.715 30.793C185.149 31.1913 184.583 31.5896 184 32C181.12 30.5601 179.339 29.66 177.844 26.75C176.92 23.7392 176.799 21.328 176.875 18.1875C176.893 17.2117 176.911 16.2359 176.93 15.2305C176.953 14.4944 176.976 13.7584 177 13Z" fill="#9D2D9B"/>
<path d="M168.672 21.3242C171.092 23.0662 171.967 24.2431 173 27C172.499 26.6829 171.997 26.3658 171.48 26.0391C165.587 22.4043 159.545 19.0708 153.438 15.8125C152.647 15.3847 151.856 14.9569 151.042 14.5161C142.027 9.75066 132.929 5.85125 122.651 8.63647C114.837 11.4442 107.547 15.0822 100.2 18.918C98.1121 20.0067 96.0175 21.0821 93.9219 22.1562C92.5751 22.8534 91.2287 23.5513 89.8828 24.25C88.9562 24.7252 88.9562 24.7252 88.0108 25.21C84.3354 27.1403 81.1571 29.3069 78 32C79.3342 28.8537 80.4947 27.3503 83.4375 25.625C84.1568 25.2009 84.8761 24.7768 85.6172 24.3398C90.0536 21.8453 94.5156 19.4073 99 17C100.241 16.316 101.482 15.631 102.723 14.9453C128.392 0.837567 144.486 7.77617 168.672 21.3242Z" fill="#FADAF7"/>
<path d="M52 172C57.2914 172.541 61.115 174.351 65.6875 176.875C66.6823 177.403 66.6823 177.403 67.6973 177.941C74.6084 181.686 74.6084 181.686 76 184C76.2171 186.811 76.2828 189.388 76.1875 192.188C76.1672 193.312 76.1672 193.312 76.1465 194.459C76.1112 196.306 76.0574 198.153 76 200C75.34 200 74.68 200 74 200C73.853 199.12 73.7061 198.239 73.5547 197.332C72.3936 189.818 72.3936 189.818 68.1875 183.812C65.1489 182.085 62.3772 180.885 59 180C59 179.34 59 178.68 59 178C58.0512 177.711 57.1025 177.423 56.125 177.125C53 176 53 176 51 174C51.33 173.34 51.66 172.68 52 172Z" fill="#F68530"/>
<path d="M207 96C207.33 96 207.66 96 208 96C208.66 97.98 209.32 99.96 210 102C210.66 101.34 211.32 100.68 212 100C212 110.89 212 121.78 212 133C210.35 132.67 208.7 132.34 207 132C207 120.12 207 108.24 207 96Z" fill="#1AC6D4"/>
<path d="M84 190C91.2953 189.299 95.5903 192.188 101.684 195.889C105.441 198.046 107.403 199.015 111.844 198.902C115.123 198.138 115.123 198.138 118 196C117.65 198.591 117.262 200.577 115.875 202.813C112.918 204.685 110.338 204.612 107 204C102.707 202.28 98.6514 200.155 94.5625 198C93.4494 197.428 92.3363 196.855 91.1895 196.266C88.4529 194.856 85.7237 193.434 83 192C83.33 191.34 83.66 190.68 84 190Z" fill="#F37A86"/>
<path d="M167 23C170.875 24.75 170.875 24.75 172 27C168.42 28.8191 164.835 30.6291 161.25 32.4375C160.234 32.9538 159.218 33.47 158.172 34.002C156.702 34.7416 156.702 34.7416 155.203 35.4961C154.302 35.9517 153.402 36.4073 152.474 36.8767C150.281 37.8723 148.371 38.6104 146 39C143.437 37.9632 141.349 36.4909 139 35C139.99 33.68 140.98 32.36 142 31C142.99 31.66 143.98 32.32 145 33C149.982 32.7224 153.925 30.7512 158.25 28.4375C164.762 25 164.762 25 167 25C167 24.34 167 23.68 167 23Z" fill="#F87CE9"/>
<path d="M198 101C200 103 200 103 200.227 105.063C200.217 105.89 200.206 106.718 200.195 107.57C200.189 108.466 200.182 109.362 200.176 110.285C200.159 111.222 200.142 112.159 200.125 113.125C200.116 114.07 200.107 115.015 200.098 115.988C200.074 118.326 200.041 120.663 200 123C199.67 123 199.34 123 199 123C199 117.06 199 111.12 199 105C191.627 108.249 184.309 111.611 177 115C177.502 111.288 177.996 109.308 181 107C182.923 105.874 184.886 104.817 186.875 103.812C187.904 103.283 188.932 102.753 189.992 102.207C192.986 101.006 194.822 100.574 198 101Z" fill="#F5BC4F"/>
<path d="M153 159C153.33 160.32 153.66 161.64 154 163C150.352 166.082 146.634 168.474 142.438 170.75C141.322 171.364 140.207 171.977 139.059 172.609C136 174 136 174 132 174C132 171.03 132 168.06 132 165C133.32 165 134.64 165 136 165C136 165.99 136 166.98 136 168C138.647 166.69 141.293 165.377 143.938 164.062C144.692 163.689 145.447 163.316 146.225 162.932C146.943 162.574 147.662 162.216 148.402 161.848C149.067 161.518 149.732 161.188 150.418 160.848C151.996 160.1 151.996 160.1 153 159Z" fill="#9276E5"/>
<path d="M53 83.125C55.5576 83.871 57.7007 84.6735 60 86C57 87 57 87 54 86.375C51.0986 85.6884 51.0986 85.6884 49.3358 87.0606C47.3643 89.9229 47.6259 92.2018 47.6277 95.6553C47.624 96.3272 47.6204 96.9992 47.6166 97.6915C47.6085 99.9144 47.6221 102.137 47.6367 104.359C47.6372 105.908 47.6367 107.456 47.6352 109.004C47.6353 112.253 47.6457 115.501 47.6638 118.749C47.6864 122.899 47.6871 127.049 47.6803 131.2C47.6769 134.4 47.6836 137.6 47.6934 140.8C47.6973 142.329 47.6984 143.859 47.6968 145.388C47.6965 147.534 47.7092 149.681 47.7253 151.827C47.7299 153.046 47.7346 154.265 47.7393 155.521C48.024 159.32 48.8361 162.386 50 166C47.1846 163.307 46.0486 161.998 45.8528 157.977C45.843 156.679 45.8331 155.381 45.823 154.043C45.8164 153.328 45.8099 152.612 45.8031 151.875C45.7833 149.503 45.7717 147.13 45.7617 144.758C45.7576 143.948 45.7536 143.139 45.7494 142.305C45.7285 138.021 45.7142 133.737 45.7048 129.453C45.6938 125.025 45.6594 120.598 45.6197 116.17C45.5935 112.768 45.5851 109.366 45.5816 105.963C45.5767 104.331 45.565 102.698 45.5465 101.066C45.5222 98.7822 45.5231 96.4995 45.53 94.2153C45.5212 92.2658 45.5212 92.2658 45.5123 90.2769C46 87 46 87 47.8419 84.5412C50 83 50 83 53 83.125Z" fill="#1A3946"/>
<path d="M155 63C158.879 62.7672 161.386 62.6799 164.875 64.5C170.111 67.0131 175.484 66.5474 181 65C180.578 65.4821 180.157 65.9642 179.723 66.4609C179.175 67.0926 178.627 67.7242 178.062 68.375C177.245 69.3147 177.245 69.3147 176.41 70.2734C174.93 71.9563 174.93 71.9563 174 74C169.373 72.6078 165.353 70.7048 161.125 68.375C159.973 67.7434 158.82 67.1117 157.633 66.4609C156.764 65.9788 155.895 65.4967 155 65C155 64.34 155 63.68 155 63Z" fill="#45CCEF"/>
<path d="M172 81C175 82 175 82 176 84C176.083 85.3755 176.107 86.7549 176.098 88.1328C176.094 88.9385 176.091 89.7441 176.088 90.5742C176.08 91.416 176.071 92.2577 176.062 93.125C176.058 93.9745 176.053 94.824 176.049 95.6992C176.037 97.7995 176.019 99.8998 176 102C175.01 102 174.02 102 173 102C173.33 101.67 173.66 101.34 174 101C174.235 98.6501 174.414 96.2944 174.562 93.9375C174.646 92.6471 174.73 91.3568 174.816 90.0273C174.907 88.5288 174.907 88.5288 175 87C174.013 87.5053 173.025 88.0106 172.008 88.5312C170.714 89.1877 169.419 89.8439 168.125 90.5C167.474 90.8339 166.823 91.1677 166.152 91.5117C161.227 94 161.227 94 159 94C158.67 92.68 158.34 91.36 158 90C158.927 89.5179 159.854 89.0358 160.809 88.5391C162.018 87.9013 163.228 87.2633 164.438 86.625C165.049 86.3079 165.661 85.9908 166.291 85.6641C169.752 83.977 169.752 83.977 172 81Z" fill="#57E3ED"/>
<path d="M151 172C151.66 172.33 152.32 172.66 153 173C152.67 173.66 152.34 174.32 152 175C153.98 174.67 155.96 174.34 158 174C153.341 179.14 146.71 182.066 139.875 182.812C138.596 182.874 137.317 182.936 136 183C136 182.34 136 181.68 136 181C134.35 181 132.7 181 131 181C131 180.67 131 180.34 131 180C132.609 179.691 132.609 179.691 134.25 179.375C139.397 178.13 143.826 175.65 148.461 173.145C149.299 172.767 150.137 172.389 151 172Z" fill="#E96577"/>
<path d="M131 141C131.66 142.32 132.32 143.64 133 145C133.66 144.01 134.32 143.02 135 142C135.197 145.083 135.381 148.166 135.562 151.25C135.619 152.123 135.675 152.995 135.732 153.895C135.781 154.739 135.829 155.583 135.879 156.453C135.95 157.616 135.95 157.616 136.022 158.802C136 161.031 135.63 162.869 135 165C134.01 165 133.02 165 132 165C132 167.64 132 170.28 132 173C131.67 173 131.34 173 131 173C131 162.44 131 151.88 131 141Z" fill="#8D99EA"/>
<path d="M133 203C133.66 203 134.32 203 135 203C135.371 209.053 135.083 213.579 132 219C128.991 221.93 126.071 223.908 122 225C118.004 224.667 114.657 223.614 111 222C113.877 220.921 116.036 221.087 119 221.562C121.438 221.897 122.897 222.025 125.312 221.438C129.167 218.154 130.11 214.093 130.562 209.25C130.605 208.492 130.648 207.734 130.691 206.953C131 205 131 205 133 203Z" fill="#DF469F"/>
<path d="M84 160C87.5766 160.357 90.2853 161.497 93.3906 163.25C94.1821 163.693 94.9736 164.137 95.7891 164.594C96.6012 165.058 97.4133 165.522 98.25 166C99.0776 166.464 99.9052 166.928 100.758 167.406C106.831 170.831 106.831 170.831 108 172C108.041 174.333 108.042 176.667 108 179C107.34 179 106.68 179 106 179C105.843 178.109 105.685 177.219 105.523 176.301C103.345 171.58 100.175 170.383 95.625 168.188C94.8567 167.794 94.0884 167.4 93.2969 166.994C89.8842 165.273 86.7477 163.824 83 163C83 164.65 83 166.3 83 168C82.67 168 82.34 168 82 168C81.875 165.125 81.875 165.125 82 162C82.66 161.34 83.32 160.68 84 160Z" fill="#ECC857"/>
<path d="M44 153C45.7711 155.657 46.4641 157.273 47.3125 160.25C48.7931 164.913 50.9844 168.169 54 172C53.34 172 52.68 172 52 172C52 172.66 52 173.32 52 174C47.3673 172.18 45.0247 168.947 42.75 164.625C41.7982 161.294 41.7399 158.446 42 155C42.66 154.34 43.32 153.68 44 153Z" fill="#F5D063"/>
<path d="M219 71C224.543 72.0558 226.599 74.5406 229.703 78.9297C230.345 79.9545 230.345 79.9545 231 81C231.351 81.5254 231.703 82.0507 232.064 82.592C233.465 86.1959 233.285 89.7862 233.266 93.5977C233.268 94.4283 233.269 95.259 233.271 96.1149C233.273 97.8673 233.269 99.6198 233.261 101.372C233.25 104.056 233.261 106.74 233.273 109.424C233.272 111.128 233.27 112.831 233.266 114.535C233.27 115.338 233.274 116.141 233.278 116.969C233.245 120.833 233.193 122.71 231 126C230.34 125.67 229.68 125.34 229 125C229.66 124.01 230.32 123.02 231 122C231.232 119.408 231.352 116.926 231.371 114.332C231.38 113.578 231.389 112.825 231.398 112.048C231.413 110.452 231.422 108.856 231.426 107.26C231.437 104.838 231.487 102.419 231.537 99.998C231.623 91.701 231.49 85.6569 226 79C225.67 78.01 225.34 77.02 225 76C223.35 75.67 221.7 75.34 220 75C219.67 73.68 219.34 72.36 219 71Z" fill="#BCF3F5"/>
<path d="M204 189C206.475 189.495 206.475 189.495 209 190C207.33 193.34 203.679 194.353 200.438 195.938C199.4 196.459 199.4 196.459 198.342 196.99C184.568 203.806 184.568 203.806 178 202C178 201.67 178 201.34 178 201C180.31 201 182.62 201 185 201C185 200.34 185 199.68 185 199C188.445 196.704 190.938 196.46 195 196C195.33 195.01 195.66 194.02 196 193C198.438 191.75 198.438 191.75 201 191C201.66 191.33 202.32 191.66 203 192C203.33 191.01 203.66 190.02 204 189Z" fill="#8FC7EC"/>
<path d="M242 28C242.33 28 242.66 28 243 28C243.025 33.481 243.043 38.9619 243.055 44.4429C243.06 46.3071 243.067 48.1714 243.075 50.0356C243.088 52.7165 243.093 55.3973 243.098 58.0781C243.103 58.9106 243.108 59.743 243.113 60.6006C243.113 61.3812 243.113 62.1617 243.114 62.9658C243.116 63.6498 243.118 64.3337 243.12 65.0384C242.992 67.1282 242.567 68.9885 242 71C239.525 71.495 239.525 71.495 237 72C236.946 69.3747 236.906 66.7506 236.875 64.125C236.858 63.3786 236.841 62.6323 236.824 61.8633C236.807 59.9081 236.897 57.9526 237 56C237.66 55.34 238.32 54.68 239 54C240.262 56.5248 240.099 58.312 240.063 61.125C240.053 62.0351 240.044 62.9452 240.035 63.8828C240.024 64.5815 240.012 65.2802 240 66C240.66 66 241.32 66 242 66C242 53.46 242 40.92 242 28Z" fill="#30A3D8"/>
<path d="M227.5 -0.437508C228.772 -0.488748 228.772 -0.488748 230.069 -0.541024C234.446 -0.572273 237.156 -0.323802 240.594 2.52734C241.388 3.34331 242.182 4.15929 243 4.99999C242.67 5.98999 242.34 6.97999 242 7.99999C241.423 7.36062 240.845 6.72124 240.25 6.06249C236.215 2.36374 232.151 2.88052 226.828 2.90234C225.804 2.90446 225.804 2.90446 224.76 2.90662C222.59 2.9122 220.42 2.92475 218.25 2.93749C216.775 2.94251 215.299 2.94707 213.824 2.95116C210.216 2.96216 206.608 2.97941 203 2.99999C203 2.66999 203 2.33999 203 1.99999C211.161 0.486774 219.211 -0.272888 227.5 -0.437508Z" fill="#EFCDF2"/>
<path d="M119 30C119.33 31.32 119.66 32.64 120 34C116.992 36.3565 113.893 38.3166 110.562 40.1875C109.636 40.7173 108.709 41.2471 107.754 41.793C104.899 43.0443 103.076 43.2512 100 43C101.385 39.6038 102.66 38.2921 105.914 36.6406C106.675 36.2475 107.435 35.8543 108.219 35.4492C109.013 35.0535 109.807 34.6577 110.625 34.25C111.427 33.8388 112.229 33.4276 113.055 33.0039C115.031 31.992 117.013 30.9913 119 30Z" fill="#F872E5"/>
<path d="M185.678 5.86133C186.827 5.8681 186.827 5.8681 188 5.875C188.771 5.87693 189.542 5.87887 190.336 5.88086C195.623 5.92098 200.762 6.23815 206 7C206 7.33 206 7.66 206 8C196.43 8.99 186.86 9.98 177 11C179.695 5.61006 179.846 5.87702 185.678 5.86133Z" fill="#F56DE2"/>
<path d="M120 177C125.65 177.601 130.662 179.075 136 181C136 181.66 136 182.32 136 183C136.66 183.33 137.32 183.66 138 184C132.511 185.12 129.166 184.792 124 183C124 182.34 124 181.68 124 181C121.525 180.01 121.525 180.01 119 179C119.33 178.34 119.66 177.68 120 177Z" fill="#FB7B82"/>
<path d="M41 136C41.66 137.32 42.32 138.64 43 140C43.66 138.68 44.32 137.36 45 136C45.0538 138.792 45.0936 141.583 45.125 144.375C45.1501 145.566 45.1501 145.566 45.1758 146.781C45.1934 148.855 45.1034 150.929 45 153C44.34 153.66 43.68 154.32 43 155C42.34 156.32 41.68 157.64 41 159C41 151.41 41 143.82 41 136Z" fill="#FAB244"/>
<path d="M183 159C183.33 159 183.66 159 184 159C184.66 161.31 185.32 163.62 186 166C186.66 164.68 187.32 163.36 188 162C188.081 163.457 188.139 164.916 188.188 166.375C188.222 167.187 188.257 167.999 188.293 168.836C188.196 169.55 188.1 170.264 188 171C187.01 171.66 186.02 172.32 185 173C184.583 175.519 184.583 175.519 184.707 178.445C184.717 179.522 184.726 180.598 184.736 181.707C184.761 182.835 184.787 183.963 184.812 185.125C184.826 186.261 184.84 187.396 184.854 188.566C184.889 191.378 184.938 194.189 185 197C183 195 183 195 182.773 191.468C182.773 189.955 182.785 188.442 182.805 186.93C182.808 186.133 182.81 185.337 182.813 184.517C182.824 181.969 182.85 179.422 182.875 176.875C182.885 175.15 182.894 173.424 182.902 171.699C182.924 167.466 182.959 163.233 183 159Z" fill="#C75FE4"/>
<path d="M177 39C177 42 177 42 175.348 43.9929C174.217 45.1005 174.217 45.1005 173.062 46.2305C172.25 47.0329 171.438 47.8354 170.602 48.6621C169.743 49.4955 168.885 50.3289 168 51.1875C166.712 52.455 166.712 52.455 165.398 53.748C163.272 55.8389 161.139 57.9224 159 60C160.65 60.99 162.3 61.98 164 63C160.931 64.5345 158.299 63.5498 155 63C154.67 63.66 154.34 64.32 154 65C154.55 61.0643 156.358 59.2927 159.148 56.5586C159.989 55.7278 160.829 54.897 161.695 54.041C162.58 53.1819 163.464 52.3227 164.375 51.4375C165.252 50.5745 166.128 49.7114 167.031 48.8223C168.661 47.2185 170.294 45.6178 171.931 44.0212C173.633 42.3588 175.322 40.6866 177 39Z" fill="#D047D1"/>
<path d="M52 172C57.2814 172.515 60.5722 174.255 65 177C65 178.32 65 179.64 65 181C62.03 180.505 62.03 180.505 59 180C59 179.34 59 178.68 59 178C58.0512 177.711 57.1025 177.423 56.125 177.125C53 176 53 176 51 174C51.33 173.34 51.66 172.68 52 172Z" fill="#EF9D3D"/>
<path d="M134 121C134.33 121 134.66 121 135 121C135.058 124.417 135.094 127.833 135.125 131.25C135.15 132.702 135.15 132.702 135.176 134.184C135.182 135.118 135.189 136.053 135.195 137.016C135.206 137.874 135.216 138.733 135.227 139.618C134.983 142.179 134.29 143.795 133 146C132.67 146 132.34 146 132 146C130.888 141.562 130.885 137.23 130.938 132.688C130.942 131.947 130.947 131.206 130.951 130.443C130.963 128.629 130.981 126.814 131 125C131.33 125 131.66 125 132 125C132.33 127.97 132.66 130.94 133 134C133.33 129.71 133.66 125.42 134 121Z" fill="#A7DFF1"/>
<path d="M190 53C190.66 53.66 191.32 54.32 192 55C181.811 66.1116 181.811 66.1116 175 67C178.073 62.0606 180.69 59.3747 185.625 56.4375C188.076 55.0831 188.076 55.0831 190 53Z" fill="#6DE4F2"/>
<path d="M189 153C189.99 153.33 190.98 153.66 192 154C190.875 156.972 189.777 159.334 188 162C187.615 163.655 187.272 165.322 187 167C186.01 166.34 185.02 165.68 184 165C183.602 161.916 183.365 159.953 184 157C186.312 154.438 186.312 154.438 189 153Z" fill="#E565EA"/>
<path d="M175 204C175.33 205.32 175.66 206.64 176 208C174.903 208.543 173.806 209.085 172.676 209.645C171.221 210.367 169.767 211.09 168.312 211.812C167.231 212.347 167.231 212.347 166.127 212.893C163.025 214.436 160.04 215.974 157.105 217.824C156.063 218.406 156.063 218.406 155 219C154.34 218.67 153.68 218.34 153 218C156.178 214.385 159.701 212.439 164 210.438C167.925 208.586 171.626 206.775 175 204Z" fill="#B690D3"/>
<path d="M88 82C92.8596 82.6075 96.7406 84.7276 101 87C100.34 88.32 99.68 89.64 99 91C94.6924 89.4336 90.9383 87.3166 87 85C87.33 84.01 87.66 83.02 88 82Z" fill="#A7FAE0"/>
<path d="M208 101C209.485 101.99 209.485 101.99 211 103C211.341 104.879 211.341 104.879 211.293 107.133C211.283 107.938 211.274 108.744 211.264 109.574C211.239 110.416 211.213 111.258 211.188 112.125C211.174 112.974 211.16 113.824 211.146 114.699C211.111 116.8 211.057 118.9 211 121C209.134 119.427 208.098 118.545 207.659 116.099C207.675 115.402 207.691 114.706 207.707 113.988C207.717 113.231 207.726 112.474 207.736 111.693C207.761 110.908 207.787 110.122 207.812 109.312C207.826 108.515 207.84 107.718 207.854 106.896C207.889 104.931 207.943 102.965 208 101Z" fill="#14DCDF"/>
<path d="M168 114C168.66 114.33 169.32 114.66 170 115C169.265 115.579 169.265 115.579 168.516 116.169C166.468 118.642 166.668 120.116 166.742 123.297C166.756 124.338 166.771 125.38 166.785 126.453C166.815 127.541 166.844 128.629 166.875 129.75C167.143 142.847 167.143 142.847 166 149C165.67 149 165.34 149 165 149C165 139.76 165 130.52 165 121C164.34 121 163.68 121 163 121C164.25 117.347 164.671 116.219 168 114Z" fill="#F45397"/>
<path d="M149 221C143.202 225.683 138.261 227.484 130.812 227.312C130.102 227.316 129.391 227.319 128.658 227.322C124.914 227.284 123.186 227.124 120 225C126.93 225.495 126.93 225.495 134 226C134 225.34 134 224.68 134 224C135.093 223.691 136.186 223.381 137.312 223.062C144.859 220.888 144.859 220.888 149 221Z" fill="#B997D6"/>
<path d="M151 172C151.66 172.33 152.32 172.66 153 173C152.67 173.66 152.34 174.32 152 175C153.98 174.67 155.96 174.34 158 174C155.444 176.982 152.649 178.585 149 180C146.208 179.147 145.071 178.071 143 176C144.287 175.303 145.579 174.618 146.875 173.938C147.594 173.555 148.314 173.172 149.055 172.777C149.697 172.521 150.339 172.264 151 172Z" fill="#E35E70"/>
<path d="M226 79C228.653 81.4759 230.68 83.5903 232 87C232 87.99 232 88.98 232 90C228.7 89.34 225.4 88.68 222 88C223.32 85.03 224.64 82.06 226 79Z" fill="#46E2DF"/>
<path d="M71 79C71.33 79 71.66 79 72 79C72 83.29 72 87.58 72 92C65.25 89.75 65.25 89.75 62.3516 88.2734C61.7393 87.9641 61.127 87.6547 60.4961 87.3359C59.8786 87.0188 59.2612 86.7017 58.625 86.375C57.9843 86.0502 57.3437 85.7253 56.6836 85.3906C55.1205 84.5974 53.56 83.7992 52 83C54.9064 81.7814 55.9268 81.9703 58.9102 83.1797C60.4706 84.0189 60.4706 84.0189 62.0625 84.875C66.4195 87.1967 66.4195 87.1967 71 89C71 85.7 71 82.4 71 79Z" fill="#C87E38"/>
<path d="M53 83.125C55.5576 83.871 57.7007 84.6735 60 86C57 87 57 87 54 86.375C51.0643 85.6576 51.0643 85.6576 49.3445 87.2258C47.7576 89.3198 47.5861 90.411 47.4883 93.0117C47.4528 93.769 47.4174 94.5264 47.3809 95.3066C47.3583 96.0923 47.3357 96.878 47.3125 97.6875C47.2783 98.4848 47.2442 99.2821 47.209 100.104C47.1266 102.069 47.0616 104.034 47 106C46.67 106 46.34 106 46 106C45.8836 102.917 45.8127 99.8345 45.75 96.75C45.7165 95.8773 45.683 95.0046 45.6484 94.1055C45.5498 87.6445 45.5498 87.6445 47.8281 84.3828C50 83 50 83 53 83.125Z" fill="#263D4C"/>
<path d="M182 193C183.32 193.66 184.64 194.32 186 195C185.67 196.98 185.34 198.96 185 201C182.36 201 179.72 201 177 201C176.67 201.99 176.34 202.98 176 204C175.688 201.688 175.688 201.688 176 199C178.438 197.375 178.438 197.375 181 196C181.33 195.01 181.66 194.02 182 193Z" fill="#B26FDE"/>
<path d="M91 47C91.33 47 91.66 47 92 47C92 50.96 92 54.92 92 59C89.525 58.01 89.525 58.01 87 57C86.1875 54.375 86.1875 54.375 86 52C87.65 51.34 89.3 50.68 91 50C91 49.01 91 48.02 91 47Z" fill="#E15157"/>
<path d="M76 185C77.4502 187.9 78.3772 189.961 79.125 193C79.2926 193.66 79.4602 194.32 79.6328 195C80 197 80 197 80 201C77.36 201 74.72 201 72 201C73.32 200.67 74.64 200.34 76 200C76 195.05 76 190.1 76 185Z" fill="#E06A4D"/>
<path d="M40 87C40.33 87 40.66 87 41 87C41 96.24 41 105.48 41 115C39.68 115.33 38.36 115.66 37 116C37.99 114.515 37.99 114.515 39 113C39.259 110.759 39.259 110.759 39.1602 108.289C39.1492 107.374 39.1382 106.459 39.127 105.516C39.1057 104.562 39.0844 103.608 39.0625 102.625C39.0279 100.742 38.9978 98.8594 38.9727 96.9766C38.9547 96.1421 38.9367 95.3075 38.9182 94.4478C39.0044 91.8682 39.428 89.5129 40 87Z" fill="#FC712B"/>
<path d="M167 23C170.875 24.75 170.875 24.75 172 27C169.03 28.32 166.06 29.64 163 31C161.68 30.01 160.36 29.02 159 28C164.75 25 164.75 25 167 25C167 24.34 167 23.68 167 23Z" fill="#F564DD"/>
<path d="M235 6C235.66 6.33 236.32 6.66 237 7C229.857 16.8095 229.857 16.8095 227 19C225.68 18.67 224.36 18.34 223 18C226.96 14.04 230.92 10.08 235 6Z" fill="#61C5F1"/>
<path d="M118 179C119.98 179.66 121.96 180.32 124 181C123.01 181.33 122.02 181.66 121 182C121.023 182.915 121.046 183.83 121.07 184.773C121.088 185.962 121.106 187.15 121.125 188.375C121.148 189.558 121.171 190.742 121.195 191.961C121 195 121 195 119 197C117.794 193.381 117.892 190.075 117.937 186.312C117.942 185.611 117.947 184.909 117.951 184.186C117.963 182.457 117.981 180.728 118 179Z" fill="#D46052"/>
<path d="M223 126C224.98 126 226.96 126 229 126C227.515 127.485 227.515 127.485 226 129C227.98 130.65 229.96 132.3 232 134C231.67 134.99 231.34 135.98 231 137C230.34 137 229.68 137 229 137C228.67 136.01 228.34 135.02 228 134C227.34 134 226.68 134 226 134C225.67 134.66 225.34 135.32 225 136C224.34 135.67 223.68 135.34 223 135C223 132.03 223 129.06 223 126Z" fill="#D49EEC"/>
<path d="M168 36C168.99 36.33 169.98 36.66 171 37C166.38 41.62 161.76 46.24 157 51C156.67 50.01 156.34 49.02 156 48C157.75 45.3125 157.75 45.3125 160 43C160.99 43 161.98 43 163 43C163.268 42.3606 163.536 41.7212 163.812 41.0625C165 39 165 39 168 38C168 37.34 168 36.68 168 36Z" fill="#83399C"/>
<path d="M64.625 104.875C65.4088 104.916 66.1925 104.957 67 105C65.35 106.65 63.7 108.3 62 110C62.4447 110.759 62.8895 111.519 63.3477 112.301C63.9136 113.295 64.4795 114.289 65.0625 115.312C65.631 116.299 66.1995 117.285 66.7852 118.301C68 121 68 121 67 124C65.8199 122.112 64.6564 120.215 63.5 118.312C62.8503 117.257 62.2006 116.201 61.5313 115.113C60.0022 112.005 59.4773 110.392 60 107C62 105 62 105 64.625 104.875Z" fill="#E3C76D"/>
<path d="M162 120C162.99 120.33 163.98 120.66 165 121C165 126.94 165 132.88 165 139C164.34 139 163.68 139 163 139C162.67 132.73 162.34 126.46 162 120Z" fill="#F135A0"/>
<path d="M90 59C93.4854 59.6454 96.0282 61.1013 99 63C98.67 63.99 98.34 64.98 98 66C94.4375 67.6875 94.4375 67.6875 91 69C91 65 91 65 93 62C92.01 61.01 91.02 60.02 90 59Z" fill="#F2C25D"/>
<path d="M87.3125 189.75C91.0977 190.007 92.3303 190.437 95 193C94.34 193.66 93.68 194.32 93 195C88.7553 194.723 86.1838 193.816 83 191C84 190 84 190 87.3125 189.75Z" fill="#EB737C"/>
<path d="M131 141C131.66 142.32 132.32 143.64 133 145C133.66 144.01 134.32 143.02 135 142C135 145.63 135 149.26 135 153C133.68 153.33 132.36 153.66 131 154C131 149.71 131 145.42 131 141Z" fill="#95C1ED"/>
<path d="M128 218C128.66 218 129.32 218 130 218C129.938 219.812 129.938 219.812 129 222C125.433 224.029 123.001 225.06 118.875 224.812C116.149 224.042 113.59 223.143 111 222C113.877 220.921 116.036 221.087 119 221.562C121.653 221.948 122.845 222.052 125.438 221.188C127.15 220.067 127.15 220.067 128 218Z" fill="#D165AB"/>
<path d="M134 190C134.33 190 134.66 190 135 190C135 194.29 135 198.58 135 203C133.02 203.99 133.02 203.99 131 205C130.805 198.945 130.805 198.945 131 197C131.66 196.34 132.32 195.68 133 195C133.648 192.429 133.648 192.429 134 190Z" fill="#F66091"/>
<path d="M175 83C175.66 83 176.32 83 177 83C178.308 85.6151 178.411 87.9024 178.688 90.8125C178.794 91.8502 178.901 92.8879 179.012 93.957C178.999 97.1523 178.377 99.1452 177 102C176.67 102 176.34 102 176 102C175.67 95.73 175.34 89.46 175 83Z" fill="#484F95"/>
<path d="M174 111C174.33 111.66 174.66 112.32 175 113C174.34 113 173.68 113 173 113C172.897 113.763 172.794 114.526 172.688 115.312C171.953 118.184 171.328 119.23 169 121C168.34 121 167.68 121 167 121C166.67 119.68 166.34 118.36 166 117C171.75 112.125 171.75 112.125 174 111Z" fill="#F8867B"/>
<path d="M166 87C165.67 88.65 165.34 90.3 165 92C163.02 92.66 161.04 93.32 159 94C158.67 92.68 158.34 91.36 158 90C162.625 87 162.625 87 166 87Z" fill="#88F6F3"/>
<path d="M219 71C224.642 72.312 226.891 74.2891 230 79C229.812 81.375 229.812 81.375 229 83C227.108 80.6143 225.976 78.9282 225 76C223.35 75.67 221.7 75.34 220 75C219.67 73.68 219.34 72.36 219 71Z" fill="#9FEDE8"/>
<path d="M43 61C44.4592 61.1141 45.9174 61.2417 47.375 61.375C48.5932 61.4794 48.5932 61.4794 49.8359 61.5859C52 62 52 62 54 64C53.01 64 52.02 64 51 64C51.33 64.99 51.66 65.98 52 67C48.5969 65.9412 45.9865 64.991 43 63C43 62.34 43 61.68 43 61Z" fill="#FCB64F"/>
<path d="M98 169C101.181 168.783 103.44 168.749 106.375 170.063C108.788 172.939 108.273 175.377 108 179C107.34 179 106.68 179 106 179C105.794 178.072 105.588 177.144 105.375 176.188C104.256 172.74 104.256 172.74 100.875 171.125C99.9262 170.754 98.9775 170.383 98 170C98 169.67 98 169.34 98 169Z" fill="#EDBE4F"/>
<path d="M159.25 169.875C160.116 170.432 160.116 170.432 161 171C159.026 173.523 158.033 173.993 154.812 174.688C153.42 174.842 153.42 174.842 152 175C152.25 173.125 152.25 173.125 153 171C155.465 169.13 156.321 168.736 159.25 169.875Z" fill="#F56E6B"/>
<path d="M47 167C49.9139 167.291 50.8257 167.795 52.75 170.062C53.1625 170.702 53.575 171.341 54 172C53.34 172 52.68 172 52 172C52 172.66 52 173.32 52 174C49.3781 172.951 48.2063 172.351 46.75 169.875C46.5025 169.256 46.255 168.637 46 168C46.33 167.67 46.66 167.34 47 167Z" fill="#F7D878"/>
<path d="M149 99C149.66 99.33 150.32 99.66 151 100C146.667 104.333 142.333 108.667 138 113C139.816 107.006 143.858 102.428 149 99Z" fill="#5BC5E4"/>
<path d="M65 106C66.75 106.125 66.75 106.125 69 107C71.25 110.062 71.25 110.062 73 113C72.67 113.66 72.34 114.32 72 115C67.9745 113.658 67.1171 111.577 65 108C65 107.34 65 106.68 65 106Z" fill="#F3E381"/>
<path d="M98 214C99.65 214 101.3 214 103 214C103 214.66 103 215.32 103 216C105.97 216.495 105.97 216.495 109 217C109 217.66 109 218.32 109 219C109.66 219 110.32 219 111 219C111 219.66 111 220.32 111 221C106.173 219.587 102.284 217.57 98 215C98 214.67 98 214.34 98 214Z" fill="#DB98C5"/>
<path d="M183 107C182.67 108.32 182.34 109.64 182 111C182.66 111.33 183.32 111.66 184 112C180.535 113.485 180.535 113.485 177 115C177.376 112.218 177.673 110.412 179.438 108.188C181 107 181 107 183 107Z" fill="#F5AC56"/>
<path d="M92 47C92.33 47 92.66 47 93 47C93.0709 47.767 93.1418 48.534 93.2148 49.3242C93.7531 52.1337 93.7531 52.1337 96.0664 53.582C97.302 54.1911 97.302 54.1911 98.5625 54.8125C99.8019 55.4409 99.8019 55.4409 101.066 56.082C101.704 56.385 102.343 56.6879 103 57C101 58 101 58 99.0547 57.4414C98.3354 57.1514 97.6161 56.8613 96.875 56.5625C96.1505 56.275 95.4261 55.9876 94.6797 55.6914C94.1254 55.4632 93.5711 55.2351 93 55C92.67 56.32 92.34 57.64 92 59C92 55.04 92 51.08 92 47Z" fill="#64297A"/>
<path d="M133 203C133.66 203 134.32 203 135 203C135 205.31 135 207.62 135 210C133.02 210.99 133.02 210.99 131 212C130.875 208.625 130.875 208.625 131 205C131.66 204.34 132.32 203.68 133 203Z" fill="#EB5199"/>
<path d="M194 199C183.626 203.777 183.626 203.777 178 202C178 201.67 178 201.34 178 201C180.31 201 182.62 201 185 201C185 200.34 185 199.68 185 199C190.625 197.875 190.625 197.875 194 199Z" fill="#B3C0E9"/>
<path d="M137.688 29.375C138.451 29.5813 139.214 29.7875 140 30C140 31.32 140 32.64 140 34C134.25 33.25 134.25 33.25 132 31C135 29 135 29 137.688 29.375Z" fill="#F28AE9"/>
<path d="M131 223C130.67 223.33 130.34 223.66 130 224C131.32 224.66 132.64 225.32 134 226C132.375 226.054 130.75 226.093 129.125 226.125C128.22 226.148 127.315 226.171 126.383 226.195C124 226 124 226 122 224C125.426 222.382 127.381 221.659 131 223Z" fill="#8836B5"/>
<path d="M45 82C47.31 82 49.62 82 52 82C50.02 84.31 48.04 86.62 46 89C44 86 44 86 44.375 83.8125C44.5813 83.2144 44.7875 82.6162 45 82Z" fill="#E14943"/>
<path d="M147 48C147.33 48 147.66 48 148 48C148 50.31 148 52.62 148 55C149.32 53.68 150.64 52.36 152 51C152.99 51.33 153.98 51.66 155 52C153.857 53.1696 152.711 54.3356 151.562 55.5C150.924 56.1497 150.286 56.7994 149.629 57.4688C148 59 148 59 147 59C147 55.37 147 51.74 147 48Z" fill="#9634A2"/>
<path d="M82 205C83.2787 205.248 84.5575 205.495 85.875 205.75C86.9539 205.959 86.9539 205.959 88.0547 206.172C90 207 90 207 91.2578 209.078C91.5027 209.712 91.7477 210.347 92 211C90.5165 210.577 89.0382 210.136 87.5625 209.688C86.7388 209.444 85.9151 209.2 85.0664 208.949C84.0435 208.479 84.0435 208.479 83 208C82.67 207.01 82.34 206.02 82 205Z" fill="#DC95C4"/>
<path d="M198 192C198.66 192.66 199.32 193.32 200 194C195.737 198.13 192.712 198.613 187 199C187.33 198.34 187.66 197.68 188 197C190.322 196.593 192.657 196.256 195 196C195.33 195.01 195.66 194.02 196 193C196.66 192.67 197.32 192.34 198 192Z" fill="#69A6E7"/>
<path d="M215 180C213.498 184.206 210.714 185.739 207 188C207 187.01 207 186.02 207 185C212.349 180 212.349 180 215 180ZM206 188C206.33 188.66 206.66 189.32 207 190C206.34 189.67 205.68 189.34 205 189C205.33 188.67 205.66 188.34 206 188Z" fill="#54A4EC"/>
<path d="M45 117C45 119.31 45 121.62 45 124C42.1156 122.707 40.1278 121.341 38 119C42.75 117 42.75 117 45 117Z" fill="#F96C44"/>
<path d="M171.562 67.9375C172.769 67.9684 172.769 67.9684 174 68C175.125 71.75 175.125 71.75 174 74C172.125 73.75 172.125 73.75 170 73C168.75 70.9375 168.75 70.9375 168 69C169 68 169 68 171.562 67.9375Z" fill="#37D7EF"/>
<path d="M141 182C141.66 182.33 142.32 182.66 143 183C142.031 183.433 141.061 183.866 140.062 184.312C137.539 185.934 137.061 186.734 136.379 189.715C136.147 192.485 136.01 195.22 136 198C135.67 198 135.34 198 135 198C135 193.71 135 189.42 135 185C136.965 183.932 138.969 182.934 141 182Z" fill="#D73687"/>
<path d="M120 177C124.992 177.48 126.85 177.888 131 181C127.37 180.67 123.74 180.34 120 180C120 179.01 120 178.02 120 177Z" fill="#EF8D9C"/>
<path d="M222 19C222.33 19.66 222.66 20.32 223 21C222.095 22.1552 221.176 23.2989 220.25 24.4375C219.74 25.0756 219.229 25.7137 218.703 26.3711C216.803 28.1881 215.564 28.6042 213 29C213.936 27.8945 214.874 26.7906 215.812 25.6875C216.335 25.0726 216.857 24.4577 217.395 23.8242C218.872 22.1458 220.4 20.5612 222 19Z" fill="#8DD2F4"/>
<path d="M52 172C53.65 172.33 55.3 172.66 57 173C57.33 173.99 57.66 174.98 58 176C56.1875 176.688 56.1875 176.688 54 177C52.25 175.562 52.25 175.562 51 174C51.33 173.34 51.66 172.68 52 172Z" fill="#F6BE51"/>
<path d="M84 160C87.2971 160.33 88.6227 160.623 91 163C88.36 163 85.72 163 83 163C83 164.65 83 166.3 83 168C82.67 168 82.34 168 82 168C81.875 165.125 81.875 165.125 82 162C82.66 161.34 83.32 160.68 84 160Z" fill="#D1AF61"/>
<path d="M33 57C33.6871 59.4906 34 61.3789 34 64C32.35 64.66 30.7 65.32 29 66C30.0588 62.5969 31.009 59.9865 33 57Z" fill="#F08934"/>
<path d="M78 189C78.33 190.32 78.66 191.64 79 193C79.66 193 80.32 193 81 193C81.33 192.34 81.66 191.68 82 191C82 193.31 82 195.62 82 198C81.01 197.67 80.02 197.34 79 197C77.6456 194.291 77.935 191.991 78 189Z" fill="#2E3456"/>
<path d="M151.945 173.805C153.964 173.87 155.982 173.935 158 174C156.23 176.142 155.124 176.961 152.438 177.812C151.633 177.874 150.829 177.936 150 178C149.34 177.34 148.68 176.68 148 176C150 174 150 174 151.945 173.805Z" fill="#EF5273"/>
<path d="M181 66C179.35 67.65 177.7 69.3 176 71C175.01 70.67 174.02 70.34 173 70C173 69.01 173 68.02 173 67C177.625 64.875 177.625 64.875 181 66Z" fill="#46E6F3"/>
<path d="M171 27C171.66 27 172.32 27 173 27C173.33 30.3 173.66 33.6 174 37C173.01 36.67 172.02 36.34 171 36C171 33.03 171 30.06 171 27Z" fill="#AC71B0"/>
<path d="M71 79C71.33 79 71.66 79 72 79C72 83.29 72 87.58 72 92C70.68 91.67 69.36 91.34 68 91C68 90.34 68 89.68 68 89C68.99 89 69.98 89 71 89C71 85.7 71 82.4 71 79Z" fill="#DD8E2F"/>
<path d="M156 60C158.352 60.5986 160.686 61.2692 163 62C163.33 62.66 163.66 63.32 164 64C161.03 63.67 158.06 63.34 155 63C154.67 63.66 154.34 64.32 154 65C154.875 61.125 154.875 61.125 156 60Z" fill="#9D61D1"/>
<path d="M78 36C79.65 36 81.3 36 83 36C83 37.65 83 39.3 83 41C80.525 40.01 80.525 40.01 78 39C78 38.01 78 37.02 78 36Z" fill="#732B7A"/>
<path d="M223 126C224.98 126 226.96 126 229 126C228.526 126.351 228.051 126.701 227.562 127.062C225.321 129.842 225.329 132.514 225 136C224.34 135.67 223.68 135.34 223 135C223 132.03 223 129.06 223 126Z" fill="#9CACDD"/>
<path d="M40 102C40.33 102 40.66 102 41 102C41 106.29 41 110.58 41 115C39.68 115.33 38.36 115.66 37 116C37.66 115.01 38.32 114.02 39 113C39.4577 110.261 39.4577 110.261 39.625 107.312C39.6998 106.319 39.7745 105.325 39.8516 104.301C39.9005 103.542 39.9495 102.782 40 102Z" fill="#FD6A37"/>
<path d="M177 109C177.66 109.33 178.32 109.66 179 110C177.523 114.677 177.523 114.677 174.875 116.312C173.947 116.653 173.947 116.653 173 117C173 115.68 173 114.36 173 113C173.66 113 174.32 113 175 113C175.66 111.68 176.32 110.36 177 109Z" fill="#F6986B"/>
<path d="M168 36C168.99 36.33 169.98 36.66 171 37C170.048 38.006 169.088 39.0046 168.125 40C167.591 40.5569 167.058 41.1137 166.508 41.6875C165 43 165 43 163 43C163.812 41.0625 163.812 41.0625 165 39C165.99 38.67 166.98 38.34 168 38C168 37.34 168 36.68 168 36Z" fill="#8A3FA0"/>
<path d="M204 186C204.66 186.66 205.32 187.32 206 188C205.01 189.32 204.02 190.64 203 192C202.01 191.67 201.02 191.34 200 191C201.32 189.35 202.64 187.7 204 186Z" fill="#5BA0EC"/>
<path d="M85 27C84 30 84 30 81 32C81.33 32.66 81.66 33.32 82 34C80.68 34 79.36 34 78 34C81.1379 27 81.1379 27 85 27Z" fill="#E446C0"/>
<path d="M85 135C86.5625 136.188 86.5625 136.188 88 138C87.6875 140.688 87.6875 140.688 87 143C85.4375 141.25 85.4375 141.25 84 139C84.3125 136.75 84.3125 136.75 85 135Z" fill="#E3CC66"/>
<path d="M170 113C170.66 113.33 171.32 113.66 172 114C170.68 116.31 169.36 118.62 168 121C167.34 119.68 166.68 118.36 166 117C167.32 115.68 168.64 114.36 170 113Z" fill="#F76C88"/>
<path d="M163 109C163.66 109.33 164.32 109.66 165 110C162.69 112.31 160.38 114.62 158 117C158 114 158 114 160.5 111.312C161.325 110.549 162.15 109.786 163 109Z" fill="#4E3E8D"/>
<path d="M90 65C90.99 65.33 91.98 65.66 93 66C90.6403 68.0975 89.4538 68.9691 86.25 69.1875C85.1363 69.0947 85.1363 69.0947 84 69C85.9638 67.4944 87.7826 66.1087 90 65Z" fill="#FDD75D"/>
<path d="M216 207C218 208 218 208 218 208L216 207Z" fill="#FEFFFA"/>
<path d="M254 118C256 119 256 119 256 119L254 118Z" fill="#FEFAFB"/>
<path d="M247 63C249 64 249 64 249 64L247 63Z" fill="#FEFAF9"/>
</g>
<defs>
<clipPath id="clip0_1_2">
<rect width="256" height="229" fill="white"/>
</clipPath>
</defs>
</svg>
